<svg width="2000px" height="597px"
 viewBox="0.00 0.00 2292.84 683.95" xmlns="http://www.w3.org/2000/svg" xmlns:xlink="http://www.w3.org/1999/xlink">
<g id="graph0" class="graph" transform="scale(1.0 1.0) rotate(0) translate(4 679.95)">
<title>ContextMapGraph</title>
<polygon fill="white" stroke="none" points="-4,4 -4,-679.95 2288.84,-679.95 2288.84,4 -4,4"/>
<!-- AlmacenamientoDeImagenes -->
<g id="node1" class="node">
<title>AlmacenamientoDeImagenes</title>
<polygon fill="none" stroke="black" stroke-width="2" points="154.36,-87.07 142.01,-86.18 129.91,-85.18 118.11,-84.08 106.66,-82.87 95.61,-81.56 85,-80.16 74.87,-78.67 65.26,-77.09 56.22,-75.43 47.76,-73.7 39.93,-71.89 32.75,-70.02 26.24,-68.09 20.43,-66.1 15.33,-64.07 10.94,-61.99 7.29,-59.87 4.37,-57.72 2.19,-55.55 0.74,-53.35 0.01,-51.13 0,-48.91 0.69,-46.68 2.07,-44.45 4.12,-42.22 6.82,-40.01 10.13,-37.81 14.04,-35.63 18.52,-33.48 23.54,-31.36 29.06,-29.28 35.06,-27.23 41.49,-25.23 48.34,-23.29 55.56,-21.39 63.11,-19.56 70.97,-17.79 79.11,-16.08 87.48,-14.45 96.06,-12.9 104.81,-11.42 113.71,-10.03 122.74,-8.72 131.85,-7.51 141.03,-6.39 150.26,-5.37 159.51,-4.44 168.76,-3.62 178,-2.91 187.2,-2.3 196.36,-1.81 205.46,-1.42 214.48,-1.15 223.42,-1 232.27,-0.96 241.03,-1.04 249.67,-1.24 258.2,-1.55 266.61,-1.99 274.9,-2.54 283.05,-3.21 291.07,-4 298.95,-4.9 306.69,-5.92 314.27,-7.04 321.7,-8.28 328.95,-9.63 336.04,-11.07 342.94,-12.62 349.65,-14.27 356.16,-16 362.44,-17.83 368.5,-19.74 374.32,-21.72 379.87,-23.78 385.14,-25.9 390.12,-28.09 394.79,-30.33 399.11,-32.62 403.09,-34.94 406.68,-37.31 409.88,-39.7 412.66,-42.11 414.99,-44.53 416.86,-46.96 418.25,-49.38 419.13,-51.8 419.48,-54.2 419.29,-56.57 418.54,-58.91 417.22,-61.21 415.3,-63.47 412.78,-65.67 409.65,-67.81 405.91,-69.88 401.54,-71.88 396.55,-73.8 390.94,-75.63 384.71,-77.37 377.87,-79.02 370.44,-80.56 362.43,-82 353.86,-83.33 344.74,-84.54 335.11,-85.64 325,-86.62 314.42,-87.47 303.43,-88.2 292.04,-88.8 280.32,-89.28 268.29,-89.63 256.01,-89.85 243.51,-89.94 230.85,-89.9 218.08,-89.74 205.25,-89.45 192.41,-89.03 179.62,-88.5 166.92,-87.84 154.36,-87.07"/>
<text text-anchor="middle" x="217.84" y="-39.52" font-family="sans-serif" font-size="16.00">AlmacenamientoDeImagenes</text>
</g>
<!-- AnonimizacionDeImagenes -->
<g id="node2" class="node">
<title>AnonimizacionDeImagenes</title>
<polygon fill="none" stroke="black" stroke-width="2" points="200.49,-140.76 212.56,-140.44 224.6,-140.25 236.57,-140.19 248.41,-140.25 260.08,-140.44 271.54,-140.75 282.74,-141.2 293.63,-141.76 304.19,-142.46 314.36,-143.27 324.13,-144.21 333.45,-145.26 342.3,-146.43 350.64,-147.72 358.47,-149.11 365.75,-150.61 372.47,-152.21 378.62,-153.91 384.19,-155.7 389.17,-157.58 393.56,-159.53 397.35,-161.57 400.55,-163.67 403.17,-165.83 405.2,-168.05 406.67,-170.32 407.57,-172.63 407.93,-174.97 407.76,-177.35 407.08,-179.74 405.9,-182.15 404.25,-184.56 402.15,-186.97 399.61,-189.37 396.67,-191.76 393.33,-194.12 389.62,-196.46 385.56,-198.75 381.18,-201.01 376.49,-203.21 371.52,-205.35 366.27,-207.43 360.78,-209.45 355.05,-211.39 349.11,-213.25 342.96,-215.02 336.63,-216.71 330.11,-218.3 323.43,-219.79 316.59,-221.18 309.61,-222.47 302.49,-223.65 295.23,-224.71 287.85,-225.67 280.35,-226.51 272.73,-227.23 265.01,-227.84 257.18,-228.33 249.25,-228.7 241.22,-228.95 233.11,-229.08 224.92,-229.09 216.64,-228.98 208.3,-228.76 199.9,-228.41 191.45,-227.96 182.96,-227.39 174.44,-226.71 165.91,-225.93 157.37,-225.04 148.86,-224.04 140.38,-222.95 131.96,-221.76 123.61,-220.47 115.36,-219.1 107.24,-217.64 99.27,-216.09 91.47,-214.47 83.88,-212.78 76.52,-211.01 69.43,-209.18 62.63,-207.29 56.16,-205.34 50.04,-203.34 44.31,-201.29 39,-199.2 34.14,-197.08 29.76,-194.92 25.89,-192.73 22.55,-190.52 19.77,-188.3 17.57,-186.07 15.98,-183.83 15.02,-181.59 14.69,-179.35 15.03,-177.13 16.03,-174.92 17.71,-172.74 20.07,-170.58 23.11,-168.45 26.84,-166.37 31.24,-164.32 36.31,-162.33 42.04,-160.39 48.4,-158.51 55.39,-156.7 62.98,-154.96 71.14,-153.29 79.84,-151.7 89.05,-150.2 98.74,-148.79 108.87,-147.47 119.4,-146.25 130.28,-145.13 141.48,-144.12 152.94,-143.21 164.62,-142.42 176.47,-141.75 188.45,-141.19 200.49,-140.76"/>
<text text-anchor="middle" x="217.84" y="-179.54" font-family="sans-serif" font-size="16.00">AnonimizacionDeImagenes</text>
</g>
<!-- AnonimizacionDeImagenes&#45;&gt;AlmacenamientoDeImagenes -->
<g id="edge1" class="edge">
<title>AnonimizacionDeImagenes&#45;&gt;AlmacenamientoDeImagenes</title>
<path fill="none" stroke="black" stroke-width="2" d="M217.84,-139.94C217.84,-124 217.84,-106.02 217.84,-90.07"/>
<text text-anchor="middle" x="292.84" y="-110.79" font-family="sans-serif" font-size="12.00"> &#160;&#160;&#160;&#160;&#160;&#160;&#160;&#160;&#160;&#160;&#160;&#160;&#160;&#160;&#160;&#160;&#160;&#160;&#160;&#160;&#160;&#160;&#160;&#160;&#160;&#160;&#160;&#160;&#160;&#160;&#160;&#160;&#160;&#160;&#160;&#160;&#160;&#160;&#160;</text>
<polygon fill="white" stroke="none" points="211.34,-80.95 211.34,-99.2 224.34,-99.2 224.34,-80.95 211.34,-80.95"/>
<text text-anchor="start" x="213.34" y="-85.8" font-family="sans-serif" font-size="12.00">D</text>
<polygon fill="white" stroke="none" points="211.34,-130.82 211.34,-149.07 224.34,-149.07 224.34,-130.82 211.34,-130.82"/>
<text text-anchor="start" x="213.34" y="-135.67" font-family="sans-serif" font-size="12.00">U</text>
</g>
<!-- CapturaDeDatos -->
<g id="node3" class="node">
<title>CapturaDeDatos</title>
<polygon fill="none" stroke="black" stroke-width="2" points="240.15,-670.26 232.2,-670.82 224.23,-671.26 216.28,-671.58 208.38,-671.76 200.56,-671.82 192.86,-671.74 185.3,-671.54 177.91,-671.2 170.71,-670.73 163.74,-670.13 157.01,-669.4 150.55,-668.54 144.38,-667.56 138.51,-666.45 132.96,-665.23 127.75,-663.89 122.89,-662.43 118.38,-660.87 114.23,-659.2 110.46,-657.44 107.07,-655.58 104.05,-653.63 101.4,-651.61 99.14,-649.51 97.24,-647.34 95.71,-645.11 94.55,-642.83 93.74,-640.5 93.27,-638.13 93.14,-635.73 93.34,-633.31 93.85,-630.87 94.66,-628.42 95.77,-625.98 97.15,-623.54 98.8,-621.11 100.7,-618.71 102.84,-616.34 105.2,-614.01 107.79,-611.71 110.58,-609.47 113.56,-607.29 116.73,-605.17 120.07,-603.12 123.57,-601.14 127.23,-599.25 131.04,-597.44 134.99,-595.72 139.07,-594.09 143.28,-592.56 147.62,-591.13 152.07,-589.81 156.64,-588.6 161.32,-587.49 166.11,-586.5 171.01,-585.62 176,-584.85 181.09,-584.2 186.28,-583.67 191.56,-583.26 196.93,-582.96 202.38,-582.77 207.92,-582.71 213.52,-582.76 219.2,-582.92 224.93,-583.2 230.72,-583.59 236.56,-584.09 242.43,-584.69 248.33,-585.4 254.24,-586.22 260.15,-587.13 266.05,-588.14 271.92,-589.25 277.74,-590.44 283.5,-591.73 289.19,-593.1 294.77,-594.55 300.24,-596.08 305.56,-597.69 310.73,-599.37 315.72,-601.11 320.5,-602.92 325.06,-604.78 329.37,-606.7 333.41,-608.67 337.17,-610.69 340.61,-612.75 343.72,-614.84 346.48,-616.97 348.87,-619.13 350.88,-621.31 352.48,-623.51 353.67,-625.72 354.43,-627.94 354.75,-630.16 354.62,-632.38 354.04,-634.59 352.99,-636.79 351.48,-638.97 349.51,-641.13 347.08,-643.26 344.19,-645.35 340.85,-647.4 337.07,-649.4 332.86,-651.36 328.23,-653.25 323.21,-655.08 317.8,-656.84 312.03,-658.53 305.93,-660.14 299.51,-661.67 292.8,-663.1 285.82,-664.44 278.62,-665.68 271.21,-666.82 263.62,-667.85 255.9,-668.77 248.07,-669.57 240.15,-670.26"/>
<text text-anchor="middle" x="217.84" y="-621.1" font-family="sans-serif" font-size="16.00">CapturaDeDatos</text>
</g>
<!-- ProcesamientoDeImagenes -->
<g id="node4" class="node">
<title>ProcesamientoDeImagenes</title>
<polygon fill="none" stroke="black" stroke-width="2" points="68.63,-504.35 61.32,-502.04 54.45,-499.67 48.08,-497.25 42.22,-494.79 36.9,-492.3 32.14,-489.79 27.97,-487.27 24.4,-484.74 21.45,-482.22 19.14,-479.71 17.47,-477.23 16.46,-474.78 16.1,-472.36 16.41,-469.99 17.37,-467.67 18.99,-465.4 21.26,-463.2 24.17,-461.06 27.71,-459 31.86,-457.01 36.6,-455.1 41.91,-453.28 47.78,-451.54 54.17,-449.89 61.05,-448.33 68.41,-446.86 76.2,-445.49 84.4,-444.21 92.97,-443.02 101.88,-441.93 111.08,-440.93 120.55,-440.02 130.25,-439.21 140.15,-438.49 150.19,-437.87 160.35,-437.34 170.6,-436.89 180.89,-436.54 191.19,-436.28 201.46,-436.11 211.69,-436.02 221.82,-436.03 231.84,-436.12 241.71,-436.29 251.4,-436.55 260.9,-436.9 270.18,-437.33 279.21,-437.84 287.98,-438.44 296.47,-439.13 304.65,-439.9 312.52,-440.75 320.07,-441.69 327.27,-442.71 334.13,-443.81 340.63,-445 346.76,-446.27 352.53,-447.63 357.92,-449.06 362.93,-450.58 367.56,-452.18 371.81,-453.85 375.67,-455.6 379.15,-457.43 382.25,-459.32 384.97,-461.29 387.3,-463.32 389.25,-465.42 390.82,-467.57 392.02,-469.78 392.84,-472.04 393.28,-474.34 393.35,-476.68 393.04,-479.05 392.36,-481.45 391.32,-483.87 389.89,-486.3 388.1,-488.73 385.94,-491.16 383.41,-493.58 380.51,-495.97 377.23,-498.34 373.59,-500.67 369.58,-502.96 365.21,-505.18 360.47,-507.35 355.36,-509.44 349.9,-511.45 344.08,-513.37 337.9,-515.19 331.39,-516.91 324.53,-518.51 317.34,-519.99 309.83,-521.34 302.01,-522.55 293.89,-523.63 285.48,-524.56 276.81,-525.35 267.88,-525.97 258.72,-526.44 249.35,-526.75 239.79,-526.9 230.06,-526.89 220.19,-526.72 210.2,-526.38 200.13,-525.88 190.01,-525.22 179.86,-524.41 169.71,-523.44 159.61,-522.33 149.59,-521.07 139.67,-519.67 129.91,-518.14 120.32,-516.49 110.95,-514.71 101.84,-512.83 93.02,-510.84 84.52,-508.76 76.38,-506.59 68.63,-504.35"/>
<text text-anchor="middle" x="217.84" y="-472.56" font-family="sans-serif" font-size="16.00">ProcesamientoDeImagenes</text>
</g>
<!-- CapturaDeDatos&#45;&gt;ProcesamientoDeImagenes -->
<g id="edge2" class="edge">
<title>CapturaDeDatos&#45;&gt;ProcesamientoDeImagenes</title>
<path fill="none" stroke="black" stroke-width="2" d="M217.84,-582.77C217.84,-565.29 217.84,-544.98 217.84,-526.99"/>
<text text-anchor="middle" x="292.84" y="-547.75" font-family="sans-serif" font-size="12.00"> &#160;&#160;&#160;&#160;&#160;&#160;&#160;&#160;&#160;&#160;&#160;&#160;&#160;&#160;&#160;&#160;&#160;&#160;&#160;&#160;&#160;&#160;&#160;&#160;&#160;&#160;&#160;&#160;&#160;&#160;&#160;&#160;&#160;&#160;&#160;&#160;&#160;&#160;&#160;</text>
<polygon fill="white" stroke="none" points="211.34,-517.86 211.34,-536.11 224.34,-536.11 224.34,-517.86 211.34,-517.86"/>
<text text-anchor="start" x="213.34" y="-522.71" font-family="sans-serif" font-size="12.00">D</text>
<polygon fill="white" stroke="none" points="211.34,-573.65 211.34,-591.9 224.34,-591.9 224.34,-573.65 211.34,-573.65"/>
<text text-anchor="start" x="213.34" y="-578.5" font-family="sans-serif" font-size="12.00">U</text>
</g>
<!-- VerificacionDeCalidad -->
<g id="node5" class="node">
<title>VerificacionDeCalidad</title>
<polygon fill="none" stroke="black" stroke-width="2" points="349.77,-352.77 344.58,-355.26 339.07,-357.67 333.24,-360 327.12,-362.22 320.74,-364.34 314.11,-366.34 307.26,-368.21 300.21,-369.95 292.98,-371.55 285.6,-373 278.09,-374.3 270.48,-375.45 262.77,-376.43 255,-377.25 247.19,-377.91 239.36,-378.4 231.52,-378.72 223.71,-378.87 215.92,-378.85 208.2,-378.68 200.55,-378.34 192.98,-377.84 185.52,-377.19 178.18,-376.38 170.98,-375.44 163.93,-374.35 157.04,-373.13 150.32,-371.79 143.8,-370.33 137.47,-368.76 131.35,-367.09 125.46,-365.32 119.8,-363.47 114.38,-361.53 109.21,-359.54 104.3,-357.48 99.67,-355.36 95.3,-353.21 91.23,-351.01 87.45,-348.79 83.97,-346.55 80.81,-344.3 77.95,-342.04 75.43,-339.78 73.23,-337.52 71.38,-335.28 69.86,-333.06 68.7,-330.86 67.9,-328.68 67.45,-326.54 67.37,-324.43 67.66,-322.36 68.33,-320.33 69.37,-318.35 70.8,-316.41 72.61,-314.52 74.79,-312.68 77.37,-310.89 80.32,-309.15 83.65,-307.47 87.36,-305.84 91.45,-304.27 95.9,-302.76 100.71,-301.3 105.88,-299.9 111.38,-298.56 117.23,-297.28 123.39,-296.06 129.87,-294.9 136.63,-293.81 143.68,-292.78 150.98,-291.82 158.53,-290.93 166.3,-290.11 174.27,-289.36 182.41,-288.69 190.71,-288.1 199.14,-287.58 207.68,-287.15 216.29,-286.81 224.95,-286.56 233.63,-286.4 242.31,-286.33 250.96,-286.37 259.53,-286.51 268.02,-286.75 276.38,-287.1 284.6,-287.57 292.63,-288.14 300.45,-288.83 308.04,-289.64 315.37,-290.56 322.41,-291.61 329.13,-292.77 335.52,-294.05 341.54,-295.46 347.19,-296.98 352.44,-298.61 357.26,-300.36 361.66,-302.22 365.6,-304.19 369.08,-306.26 372.09,-308.43 374.61,-310.69 376.65,-313.03 378.2,-315.46 379.24,-317.96 379.79,-320.52 379.84,-323.14 379.4,-325.8 378.47,-328.5 377.06,-331.23 375.18,-333.97 372.83,-336.73 370.03,-339.47 366.79,-342.21 363.13,-344.91 359.06,-347.58 354.6,-350.2 349.77,-352.77"/>
<text text-anchor="middle" x="217.84" y="-324.01" font-family="sans-serif" font-size="16.00">VerificacionDeCalidad</text>
</g>
<!-- ProcesamientoDeImagenes&#45;&gt;VerificacionDeCalidad -->
<g id="edge3" class="edge">
<title>ProcesamientoDeImagenes&#45;&gt;VerificacionDeCalidad</title>
<path fill="none" stroke="black" stroke-width="2" d="M217.84,-435.8C217.84,-418.19 217.84,-397.5 217.84,-379.14"/>
<text text-anchor="middle" x="292.84" y="-399.72" font-family="sans-serif" font-size="12.00"> &#160;&#160;&#160;&#160;&#160;&#160;&#160;&#160;&#160;&#160;&#160;&#160;&#160;&#160;&#160;&#160;&#160;&#160;&#160;&#160;&#160;&#160;&#160;&#160;&#160;&#160;&#160;&#160;&#160;&#160;&#160;&#160;&#160;&#160;&#160;&#160;&#160;&#160;&#160;</text>
<polygon fill="white" stroke="none" points="211.34,-370.02 211.34,-388.27 224.34,-388.27 224.34,-370.02 211.34,-370.02"/>
<text text-anchor="start" x="213.34" y="-374.87" font-family="sans-serif" font-size="12.00">D</text>
<polygon fill="white" stroke="none" points="211.34,-426.67 211.34,-444.92 224.34,-444.92 224.34,-426.67 211.34,-426.67"/>
<text text-anchor="start" x="213.34" y="-431.52" font-family="sans-serif" font-size="12.00">U</text>
</g>
<!-- VerificacionDeCalidad&#45;&gt;AnonimizacionDeImagenes -->
<g id="edge4" class="edge">
<title>VerificacionDeCalidad&#45;&gt;AnonimizacionDeImagenes</title>
<path fill="none" stroke="black" stroke-width="2" d="M217.84,-286.48C217.84,-268.43 217.84,-247.33 217.84,-229.15"/>
<text text-anchor="middle" x="292.84" y="-250.65" font-family="sans-serif" font-size="12.00"> &#160;&#160;&#160;&#160;&#160;&#160;&#160;&#160;&#160;&#160;&#160;&#160;&#160;&#160;&#160;&#160;&#160;&#160;&#160;&#160;&#160;&#160;&#160;&#160;&#160;&#160;&#160;&#160;&#160;&#160;&#160;&#160;&#160;&#160;&#160;&#160;&#160;&#160;&#160;</text>
<polygon fill="white" stroke="none" points="211.34,-220.02 211.34,-238.27 224.34,-238.27 224.34,-220.02 211.34,-220.02"/>
<text text-anchor="start" x="213.34" y="-224.87" font-family="sans-serif" font-size="12.00">D</text>
<polygon fill="white" stroke="none" points="211.34,-277.36 211.34,-295.61 224.34,-295.61 224.34,-277.36 211.34,-277.36"/>
<text text-anchor="start" x="213.34" y="-282.21" font-family="sans-serif" font-size="12.00">U</text>
</g>
<!-- ColaboracionConDesarrolladores -->
<g id="node6" class="node">
<title>ColaboracionConDesarrolladores</title>
<polygon fill="none" stroke="black" stroke-width="2" points="440.2,-471.33 442.12,-468.46 444.61,-465.62 447.67,-462.83 451.3,-460.09 455.47,-457.43 460.18,-454.85 465.41,-452.36 471.16,-449.97 477.39,-447.68 484.1,-445.52 491.27,-443.48 498.87,-441.57 506.89,-439.81 515.3,-438.18 524.08,-436.7 533.21,-435.37 542.66,-434.2 552.4,-433.19 562.41,-432.33 572.67,-431.62 583.14,-431.08 593.79,-430.69 604.61,-430.46 615.55,-430.37 626.6,-430.44 637.71,-430.65 648.87,-431 660.04,-431.48 671.19,-432.09 682.3,-432.83 693.33,-433.69 704.25,-434.65 715.04,-435.72 725.66,-436.89 736.1,-438.16 746.31,-439.5 756.28,-440.93 765.97,-442.42 775.37,-443.99 784.44,-445.61 793.16,-447.28 801.51,-449 809.47,-450.76 817.01,-452.56 824.11,-454.39 830.75,-456.24 836.92,-458.12 842.59,-460.02 847.76,-461.93 852.41,-463.85 856.51,-465.78 860.07,-467.72 863.07,-469.66 865.5,-471.61 867.36,-473.55 868.63,-475.49 869.32,-477.43 869.42,-479.37 868.93,-481.3 867.84,-483.22 866.17,-485.13 863.92,-487.04 861.09,-488.93 857.68,-490.81 853.71,-492.68 849.19,-494.53 844.12,-496.36 838.52,-498.17 832.41,-499.96 825.8,-501.73 818.71,-503.46 811.16,-505.17 803.17,-506.83 794.76,-508.46 785.95,-510.04 776.78,-511.57 767.25,-513.05 757.41,-514.46 747.27,-515.81 736.87,-517.09 726.23,-518.3 715.38,-519.42 704.37,-520.45 693.21,-521.38 681.93,-522.22 670.58,-522.94 659.17,-523.56 647.75,-524.05 636.35,-524.42 625,-524.66 613.72,-524.77 602.56,-524.74 591.54,-524.57 580.7,-524.25 570.07,-523.78 559.67,-523.17 549.53,-522.4 539.69,-521.48 530.17,-520.41 520.99,-519.19 512.19,-517.82 503.79,-516.31 495.81,-514.65 488.27,-512.85 481.2,-510.92 474.61,-508.86 468.52,-506.68 462.94,-504.38 457.9,-501.98 453.4,-499.48 449.46,-496.89 446.09,-494.22 443.3,-491.48 441.08,-488.68 439.46,-485.84 438.42,-482.96 437.98,-480.06 438.13,-477.15 438.87,-474.23 440.2,-471.33"/>
<text text-anchor="middle" x="653.84" y="-472.56" font-family="sans-serif" font-size="16.00">ColaboracionConDesarrolladores</text>
</g>
<!-- CumplimientoDeNormativas -->
<g id="node7" class="node">
<title>CumplimientoDeNormativas</title>
<polygon fill="none" stroke="black" stroke-width="2" points="917.97,-654.13 910.08,-651.88 902.65,-649.56 895.72,-647.2 889.3,-644.79 883.44,-642.35 878.16,-639.88 873.48,-637.39 869.43,-634.9 866.01,-632.4 863.25,-629.92 861.16,-627.45 859.74,-625.01 859.01,-622.59 858.97,-620.22 859.62,-617.89 860.95,-615.62 862.96,-613.39 865.64,-611.24 868.97,-609.14 872.95,-607.12 877.55,-605.18 882.76,-603.31 888.54,-601.52 894.88,-599.82 901.75,-598.21 909.11,-596.68 916.94,-595.24 925.2,-593.89 933.85,-592.63 942.87,-591.46 952.21,-590.39 961.84,-589.4 971.72,-588.51 981.81,-587.71 992.07,-587 1002.47,-586.39 1012.96,-585.86 1023.52,-585.42 1034.1,-585.07 1044.67,-584.81 1055.19,-584.64 1065.64,-584.56 1075.98,-584.57 1086.18,-584.66 1096.22,-584.84 1106.06,-585.11 1115.69,-585.46 1125.08,-585.9 1134.21,-586.43 1143.06,-587.04 1151.62,-587.74 1159.86,-588.53 1167.78,-589.4 1175.36,-590.36 1182.59,-591.41 1189.47,-592.54 1195.99,-593.76 1202.13,-595.06 1207.9,-596.45 1213.3,-597.92 1218.31,-599.48 1222.94,-601.12 1227.19,-602.84 1231.05,-604.63 1234.53,-606.5 1237.62,-608.44 1240.33,-610.46 1242.66,-612.53 1244.61,-614.67 1246.17,-616.87 1247.35,-619.12 1248.15,-621.42 1248.58,-623.75 1248.62,-626.13 1248.28,-628.53 1247.56,-630.95 1246.46,-633.39 1244.98,-635.84 1243.11,-638.29 1240.87,-640.72 1238.23,-643.14 1235.22,-645.54 1231.81,-647.9 1228.02,-650.21 1223.84,-652.48 1219.28,-654.68 1214.33,-656.81 1209,-658.87 1203.29,-660.83 1197.2,-662.71 1190.74,-664.48 1183.91,-666.13 1176.72,-667.67 1169.18,-669.08 1161.3,-670.37 1153.09,-671.51 1144.56,-672.51 1135.74,-673.37 1126.63,-674.07 1117.26,-674.62 1107.64,-675 1097.81,-675.23 1087.77,-675.3 1077.57,-675.21 1067.23,-674.96 1056.77,-674.54 1046.23,-673.97 1035.65,-673.24 1025.05,-672.36 1014.47,-671.33 1003.94,-670.16 993.51,-668.84 983.21,-667.4 973.08,-665.82 963.16,-664.13 953.48,-662.32 944.08,-660.41 935.01,-658.4 926.3,-656.3 917.97,-654.13"/>
<text text-anchor="middle" x="1067.84" y="-621.1" font-family="sans-serif" font-size="16.00">CumplimientoDeNormativas</text>
</g>
<!-- SeguridadDeDatos -->
<g id="node8" class="node">
<title>SeguridadDeDatos</title>
<polygon fill="none" stroke="black" stroke-width="2" points="933.23,-469.04 934.91,-466.19 936.96,-463.38 939.35,-460.63 942.1,-457.94 945.18,-455.32 948.59,-452.8 952.32,-450.37 956.35,-448.04 960.68,-445.83 965.29,-443.74 970.18,-441.78 975.31,-439.96 980.69,-438.28 986.3,-436.74 992.11,-435.36 998.12,-434.13 1004.31,-433.07 1010.67,-432.16 1017.17,-431.4 1023.79,-430.81 1030.53,-430.38 1037.36,-430.11 1044.27,-429.99 1051.23,-430.03 1058.24,-430.21 1065.26,-430.54 1072.29,-431.01 1079.31,-431.61 1086.29,-432.34 1093.23,-433.2 1100.09,-434.17 1106.88,-435.25 1113.55,-436.44 1120.11,-437.72 1126.54,-439.1 1132.8,-440.55 1138.9,-442.08 1144.82,-443.68 1150.53,-445.34 1156.03,-447.06 1161.3,-448.82 1166.33,-450.63 1171.09,-452.47 1175.59,-454.35 1179.81,-456.25 1183.72,-458.18 1187.34,-460.12 1190.64,-462.07 1193.61,-464.04 1196.25,-466.01 1198.54,-467.98 1200.49,-469.95 1202.08,-471.93 1203.31,-473.89 1204.17,-475.85 1204.67,-477.81 1204.79,-479.75 1204.54,-481.69 1203.92,-483.61 1202.92,-485.51 1201.55,-487.41 1199.81,-489.28 1197.7,-491.14 1195.23,-492.99 1192.41,-494.81 1189.24,-496.61 1185.72,-498.38 1181.87,-500.13 1177.7,-501.86 1173.22,-503.55 1168.44,-505.2 1163.36,-506.82 1158.02,-508.4 1152.41,-509.93 1146.56,-511.42 1140.49,-512.85 1134.2,-514.22 1127.71,-515.53 1121.06,-516.77 1114.24,-517.93 1107.29,-519.02 1100.22,-520.02 1093.06,-520.93 1085.82,-521.75 1078.52,-522.46 1071.19,-523.06 1063.85,-523.55 1056.52,-523.92 1049.22,-524.17 1041.97,-524.29 1034.79,-524.27 1027.71,-524.12 1020.74,-523.83 1013.9,-523.4 1007.22,-522.82 1000.71,-522.09 994.4,-521.22 988.3,-520.19 982.43,-519.02 976.8,-517.71 971.43,-516.24 966.34,-514.64 961.54,-512.9 957.04,-511.02 952.86,-509.02 949.01,-506.89 945.49,-504.64 942.32,-502.29 939.51,-499.84 937.06,-497.29 934.98,-494.66 933.27,-491.96 931.93,-489.19 930.98,-486.38 930.41,-483.52 930.22,-480.64 930.4,-477.73 930.97,-474.83 931.92,-471.93 933.23,-469.04"/>
<text text-anchor="middle" x="1067.84" y="-472.56" font-family="sans-serif" font-size="16.00">SeguridadDeDatos</text>
</g>
<!-- CumplimientoDeNormativas&#45;&gt;SeguridadDeDatos -->
<g id="edge5" class="edge">
<title>CumplimientoDeNormativas&#45;&gt;SeguridadDeDatos</title>
<path fill="none" stroke="black" stroke-width="2" d="M1067.84,-584.34C1067.84,-565.47 1067.84,-543.05 1067.84,-523.76"/>
<text text-anchor="middle" x="1142.84" y="-547.75" font-family="sans-serif" font-size="12.00"> &#160;&#160;&#160;&#160;&#160;&#160;&#160;&#160;&#160;&#160;&#160;&#160;&#160;&#160;&#160;&#160;&#160;&#160;&#160;&#160;&#160;&#160;&#160;&#160;&#160;&#160;&#160;&#160;&#160;&#160;&#160;&#160;&#160;&#160;&#160;&#160;&#160;&#160;&#160;</text>
<polygon fill="white" stroke="none" points="1061.34,-514.64 1061.34,-532.89 1074.34,-532.89 1074.34,-514.64 1061.34,-514.64"/>
<text text-anchor="start" x="1063.34" y="-519.49" font-family="sans-serif" font-size="12.00">D</text>
<polygon fill="white" stroke="none" points="1061.34,-575.22 1061.34,-593.47 1074.34,-593.47 1074.34,-575.22 1061.34,-575.22"/>
<text text-anchor="start" x="1063.34" y="-580.07" font-family="sans-serif" font-size="12.00">U</text>
</g>
<!-- DataPartnership -->
<g id="node9" class="node">
<title>DataPartnership</title>
<polygon fill="none" stroke="black" stroke-width="2" points="1572.81,-613.3 1575.31,-616.06 1577.47,-618.84 1579.29,-621.62 1580.75,-624.4 1581.84,-627.17 1582.56,-629.92 1582.9,-632.63 1582.87,-635.3 1582.45,-637.91 1581.64,-640.46 1580.46,-642.94 1578.89,-645.34 1576.94,-647.65 1574.62,-649.87 1571.93,-651.99 1568.88,-654 1565.48,-655.91 1561.74,-657.7 1557.68,-659.38 1553.3,-660.93 1548.62,-662.36 1543.66,-663.67 1538.43,-664.86 1532.95,-665.92 1527.24,-666.86 1521.33,-667.67 1515.22,-668.36 1508.94,-668.94 1502.51,-669.39 1495.96,-669.73 1489.3,-669.95 1482.57,-670.07 1475.77,-670.08 1468.94,-669.98 1462.1,-669.79 1455.26,-669.5 1448.46,-669.12 1441.71,-668.65 1435.03,-668.09 1428.45,-667.45 1421.98,-666.73 1415.64,-665.94 1409.45,-665.08 1403.44,-664.14 1397.61,-663.13 1391.98,-662.07 1386.56,-660.93 1381.38,-659.74 1376.43,-658.49 1371.74,-657.18 1367.31,-655.81 1363.15,-654.39 1359.27,-652.92 1355.68,-651.39 1352.39,-649.81 1349.39,-648.18 1346.69,-646.5 1344.3,-644.77 1342.22,-642.99 1340.45,-641.16 1338.99,-639.29 1337.83,-637.38 1336.99,-635.42 1336.45,-633.42 1336.22,-631.39 1336.29,-629.32 1336.65,-627.21 1337.31,-625.08 1338.26,-622.92 1339.5,-620.74 1341.01,-618.54 1342.8,-616.33 1344.86,-614.11 1347.18,-611.89 1349.76,-609.68 1352.59,-607.47 1355.66,-605.29 1358.96,-603.13 1362.5,-601 1366.25,-598.91 1370.22,-596.87 1374.39,-594.89 1378.76,-592.97 1383.32,-591.12 1388.06,-589.36 1392.97,-587.68 1398.04,-586.1 1403.27,-584.63 1408.63,-583.27 1414.13,-582.03 1419.74,-580.91 1425.47,-579.94 1431.3,-579.1 1437.21,-578.41 1443.19,-577.87 1449.24,-577.48 1455.33,-577.26 1461.46,-577.2 1467.6,-577.3 1473.76,-577.57 1479.9,-578.01 1486.01,-578.61 1492.09,-579.38 1498.1,-580.32 1504.05,-581.42 1509.9,-582.68 1515.64,-584.09 1521.26,-585.65 1526.73,-587.35 1532.05,-589.2 1537.19,-591.17 1542.14,-593.27 1546.87,-595.47 1551.38,-597.79 1555.65,-600.2 1559.66,-602.69 1563.39,-605.26 1566.84,-607.89 1569.98,-610.57 1572.81,-613.3"/>
<text text-anchor="middle" x="1455.84" y="-621.1" font-family="sans-serif" font-size="16.00">DataPartnership</text>
</g>
<!-- ServiciosDeAccesoADatosParaIA -->
<g id="node10" class="node">
<title>ServiciosDeAccesoADatosParaIA</title>
<polygon fill="none" stroke="black" stroke-width="2" points="1405.37,-521.19 1391.73,-520.54 1378.33,-519.79 1365.19,-518.92 1352.4,-517.94 1339.98,-516.85 1328,-515.66 1316.5,-514.37 1305.53,-512.98 1295.12,-511.51 1285.31,-509.94 1276.15,-508.3 1267.66,-506.58 1259.86,-504.78 1252.79,-502.91 1246.45,-500.99 1240.88,-499 1236.07,-496.97 1232.03,-494.88 1228.77,-492.76 1226.29,-490.59 1224.58,-488.4 1223.64,-486.19 1223.45,-483.95 1223.99,-481.7 1225.26,-479.44 1227.22,-477.19 1229.86,-474.93 1233.14,-472.68 1237.05,-470.45 1241.54,-468.24 1246.59,-466.06 1252.17,-463.91 1258.25,-461.79 1264.78,-459.72 1271.73,-457.69 1279.07,-455.71 1286.77,-453.8 1294.78,-451.94 1303.08,-450.15 1311.64,-448.44 1320.42,-446.8 1329.39,-445.23 1338.53,-443.76 1347.81,-442.37 1357.19,-441.08 1366.67,-439.88 1376.21,-438.78 1385.8,-437.78 1395.41,-436.89 1405.04,-436.11 1414.66,-435.43 1424.27,-434.87 1433.84,-434.43 1443.38,-434.1 1452.86,-433.89 1462.29,-433.8 1471.65,-433.82 1480.94,-433.97 1490.16,-434.24 1499.28,-434.63 1508.32,-435.14 1517.26,-435.77 1526.1,-436.51 1534.83,-437.37 1543.44,-438.35 1551.93,-439.44 1560.29,-440.64 1568.5,-441.94 1576.56,-443.35 1584.46,-444.86 1592.17,-446.46 1599.68,-448.15 1606.99,-449.94 1614.06,-451.8 1620.89,-453.74 1627.44,-455.76 1633.7,-457.83 1639.65,-459.97 1645.26,-462.17 1650.5,-464.41 1655.35,-466.69 1659.79,-469.01 1663.78,-471.36 1667.3,-473.73 1670.33,-476.11 1672.84,-478.5 1674.79,-480.89 1676.18,-483.27 1676.97,-485.64 1677.15,-487.98 1676.69,-490.3 1675.58,-492.59 1673.8,-494.83 1671.34,-497.02 1668.19,-499.16 1664.34,-501.24 1659.79,-503.24 1654.53,-505.18 1648.58,-507.04 1641.93,-508.81 1634.6,-510.49 1626.61,-512.08 1617.96,-513.57 1608.69,-514.96 1598.81,-516.24 1588.36,-517.41 1577.36,-518.47 1565.86,-519.41 1553.9,-520.23 1541.51,-520.94 1528.75,-521.52 1515.65,-521.97 1502.27,-522.31 1488.67,-522.52 1474.89,-522.6 1461,-522.57 1447.04,-522.4 1433.08,-522.12 1419.17,-521.71 1405.37,-521.19"/>
<text text-anchor="middle" x="1455.84" y="-472.56" font-family="sans-serif" font-size="16.00">ServiciosDeAccesoADatosParaIA</text>
</g>
<!-- DataPartnership&#45;&gt;ServiciosDeAccesoADatosParaIA -->
<g id="edge6" class="edge">
<title>DataPartnership&#45;&gt;ServiciosDeAccesoADatosParaIA</title>
<path fill="none" stroke="black" stroke-width="2" d="M1455.84,-576.76C1455.84,-559.27 1455.84,-539.69 1455.84,-522.67"/>
<text text-anchor="middle" x="1530.84" y="-547.75" font-family="sans-serif" font-size="12.00"> &#160;&#160;&#160;&#160;&#160;&#160;&#160;&#160;&#160;&#160;&#160;&#160;&#160;&#160;&#160;&#160;&#160;&#160;&#160;&#160;&#160;&#160;&#160;&#160;&#160;&#160;&#160;&#160;&#160;&#160;&#160;&#160;&#160;&#160;&#160;&#160;&#160;&#160;&#160;</text>
<polygon fill="white" stroke="none" points="1449.34,-513.54 1449.34,-531.79 1462.34,-531.79 1462.34,-513.54 1449.34,-513.54"/>
<text text-anchor="start" x="1451.34" y="-518.39" font-family="sans-serif" font-size="12.00">D</text>
<polygon fill="white" stroke="none" points="1449.34,-567.63 1449.34,-585.88 1462.34,-585.88 1462.34,-567.63 1449.34,-567.63"/>
<text text-anchor="start" x="1451.34" y="-572.48" font-family="sans-serif" font-size="12.00">U</text>
</g>
<!-- EstrategiasDeComercializacion -->
<g id="node11" class="node">
<title>EstrategiasDeComercializacion</title>
<polygon fill="none" stroke="black" stroke-width="2" points="1390.96,-287.29 1403.67,-286.33 1416.48,-285.5 1429.34,-284.79 1442.2,-284.22 1455.01,-283.77 1467.71,-283.46 1480.27,-283.29 1492.63,-283.26 1504.76,-283.37 1516.6,-283.61 1528.13,-284 1539.29,-284.53 1550.07,-285.19 1560.43,-285.99 1570.34,-286.93 1579.77,-288 1588.7,-289.2 1597.11,-290.52 1605,-291.97 1612.33,-293.53 1619.11,-295.2 1625.33,-296.97 1630.98,-298.85 1636.06,-300.82 1640.57,-302.87 1644.52,-305 1647.91,-307.2 1650.74,-309.47 1653.03,-311.79 1654.8,-314.16 1656.04,-316.57 1656.77,-319.01 1657.01,-321.47 1656.78,-323.95 1656.08,-326.43 1654.94,-328.92 1653.37,-331.39 1651.38,-333.84 1649,-336.27 1646.23,-338.67 1643.09,-341.03 1639.6,-343.34 1635.76,-345.6 1631.6,-347.79 1627.12,-349.92 1622.33,-351.98 1617.24,-353.97 1611.86,-355.87 1606.2,-357.68 1600.27,-359.41 1594.06,-361.04 1587.6,-362.57 1580.87,-364 1573.9,-365.33 1566.67,-366.55 1559.2,-367.66 1551.48,-368.67 1543.53,-369.57 1535.35,-370.35 1526.94,-371.03 1518.32,-371.59 1509.47,-372.04 1500.43,-372.38 1491.18,-372.61 1481.75,-372.73 1472.15,-372.74 1462.38,-372.65 1452.47,-372.44 1442.43,-372.14 1432.29,-371.73 1422.05,-371.22 1411.75,-370.61 1401.41,-369.9 1391.05,-369.1 1380.71,-368.2 1370.41,-367.21 1360.19,-366.14 1350.07,-364.98 1340.11,-363.74 1330.32,-362.41 1320.74,-361.01 1311.43,-359.53 1302.4,-357.98 1293.71,-356.36 1285.38,-354.67 1277.47,-352.92 1270,-351.11 1263.02,-349.24 1256.55,-347.32 1250.64,-345.35 1245.32,-343.34 1240.62,-341.28 1236.56,-339.18 1233.18,-337.05 1230.5,-334.89 1228.54,-332.7 1227.32,-330.5 1226.86,-328.28 1227.16,-326.05 1228.23,-323.82 1230.08,-321.58 1232.7,-319.35 1236.1,-317.14 1240.26,-314.94 1245.18,-312.77 1250.84,-310.63 1257.22,-308.52 1264.29,-306.46 1272.04,-304.44 1280.43,-302.48 1289.42,-300.59 1298.99,-298.76 1309.09,-297 1319.68,-295.33 1330.72,-293.74 1342.16,-292.24 1353.95,-290.84 1366.05,-289.55 1378.41,-288.36 1390.96,-287.29"/>
<text text-anchor="middle" x="1455.84" y="-324.01" font-family="sans-serif" font-size="16.00">EstrategiasDeComercializacion</text>
</g>
<!-- ServiciosDeAccesoADatosParaIA&#45;&gt;EstrategiasDeComercializacion -->
<g id="edge7" class="edge">
<title>ServiciosDeAccesoADatosParaIA&#45;&gt;EstrategiasDeComercializacion</title>
<path fill="none" stroke="black" stroke-width="2" d="M1455.84,-433.44C1455.84,-414.28 1455.84,-391.87 1455.84,-372.85"/>
<text text-anchor="middle" x="1530.84" y="-399.72" font-family="sans-serif" font-size="12.00"> &#160;&#160;&#160;&#160;&#160;&#160;&#160;&#160;&#160;&#160;&#160;&#160;&#160;&#160;&#160;&#160;&#160;&#160;&#160;&#160;&#160;&#160;&#160;&#160;&#160;&#160;&#160;&#160;&#160;&#160;&#160;&#160;&#160;&#160;&#160;&#160;&#160;&#160;&#160;</text>
<polygon fill="white" stroke="none" points="1449.34,-363.73 1449.34,-381.98 1462.34,-381.98 1462.34,-363.73 1449.34,-363.73"/>
<text text-anchor="start" x="1451.34" y="-368.58" font-family="sans-serif" font-size="12.00">D</text>
<polygon fill="white" stroke="none" points="1449.34,-424.31 1449.34,-442.56 1462.34,-442.56 1462.34,-424.31 1449.34,-424.31"/>
<text text-anchor="start" x="1451.34" y="-429.16" font-family="sans-serif" font-size="12.00">U</text>
</g>
<!-- ModelosDeFacturacion -->
<g id="node12" class="node">
<title>ModelosDeFacturacion</title>
<polygon fill="none" stroke="black" stroke-width="2" points="1974.37,-649.2 1969.21,-651.72 1963.72,-654.16 1957.9,-656.51 1951.77,-658.77 1945.37,-660.92 1938.71,-662.95 1931.81,-664.85 1924.7,-666.63 1917.4,-668.26 1909.93,-669.75 1902.33,-671.09 1894.6,-672.27 1886.77,-673.3 1878.87,-674.16 1870.91,-674.85 1862.92,-675.38 1854.92,-675.74 1846.93,-675.93 1838.96,-675.95 1831.04,-675.82 1823.18,-675.51 1815.4,-675.05 1807.73,-674.44 1800.16,-673.67 1792.73,-672.76 1785.44,-671.71 1778.31,-670.53 1771.35,-669.22 1764.58,-667.79 1758,-666.25 1751.64,-664.61 1745.49,-662.87 1739.58,-661.05 1733.91,-659.15 1728.5,-657.17 1723.34,-655.14 1718.46,-653.05 1713.86,-650.91 1709.55,-648.74 1705.55,-646.54 1701.85,-644.32 1698.46,-642.08 1695.4,-639.83 1692.68,-637.59 1690.29,-635.34 1688.25,-633.11 1686.56,-630.9 1685.23,-628.7 1684.27,-626.53 1683.68,-624.39 1683.47,-622.28 1683.64,-620.21 1684.2,-618.18 1685.14,-616.19 1686.48,-614.24 1688.21,-612.35 1690.34,-610.49 1692.86,-608.69 1695.77,-606.94 1699.08,-605.24 1702.78,-603.6 1706.86,-602.01 1711.33,-600.47 1716.16,-598.99 1721.36,-597.56 1726.92,-596.19 1732.82,-594.89 1739.06,-593.64 1745.61,-592.45 1752.47,-591.32 1759.62,-590.26 1767.04,-589.26 1774.71,-588.33 1782.62,-587.47 1790.73,-586.68 1799.03,-585.97 1807.49,-585.34 1816.09,-584.78 1824.8,-584.31 1833.59,-583.92 1842.45,-583.63 1851.33,-583.42 1860.21,-583.32 1869.06,-583.31 1877.85,-583.4 1886.55,-583.61 1895.14,-583.92 1903.58,-584.34 1911.84,-584.87 1919.89,-585.52 1927.71,-586.29 1935.27,-587.18 1942.54,-588.19 1949.5,-589.32 1956.12,-590.57 1962.37,-591.94 1968.25,-593.43 1973.72,-595.04 1978.77,-596.77 1983.39,-598.6 1987.55,-600.55 1991.24,-602.6 1994.46,-604.76 1997.18,-607 1999.42,-609.34 2001.15,-611.76 2002.38,-614.25 2003.1,-616.81 2003.31,-619.43 2003.03,-622.09 2002.25,-624.8 2000.97,-627.53 1999.21,-630.28 1996.98,-633.05 1994.28,-635.81 1991.14,-638.56 1987.56,-641.28 1983.56,-643.97 1979.15,-646.61 1974.37,-649.2"/>
<text text-anchor="middle" x="1837.84" y="-621.1" font-family="sans-serif" font-size="16.00">ModelosDeFacturacion</text>
</g>
<!-- ProcesoDePagos -->
<g id="node13" class="node">
<title>ProcesoDePagos</title>
<polygon fill="none" stroke="black" stroke-width="2" points="1852.08,-433.88 1860.08,-434.17 1867.99,-434.59 1875.78,-435.12 1883.42,-435.77 1890.87,-436.53 1898.12,-437.41 1905.12,-438.4 1911.85,-439.5 1918.29,-440.7 1924.42,-442 1930.21,-443.4 1935.64,-444.9 1940.69,-446.48 1945.36,-448.16 1949.63,-449.91 1953.48,-451.74 1956.92,-453.64 1959.93,-455.6 1962.5,-457.63 1964.65,-459.71 1966.37,-461.85 1967.65,-464.02 1968.52,-466.24 1968.97,-468.48 1969.01,-470.75 1968.65,-473.05 1967.9,-475.35 1966.79,-477.66 1965.31,-479.98 1963.49,-482.28 1961.34,-484.58 1958.88,-486.86 1956.13,-489.11 1953.1,-491.34 1949.82,-493.52 1946.29,-495.67 1942.55,-497.77 1938.6,-499.81 1934.46,-501.8 1930.15,-503.72 1925.69,-505.57 1921.1,-507.34 1916.38,-509.04 1911.55,-510.65 1906.63,-512.17 1901.62,-513.6 1896.55,-514.94 1891.41,-516.17 1886.22,-517.3 1880.99,-518.32 1875.72,-519.23 1870.42,-520.03 1865.11,-520.71 1859.77,-521.28 1854.43,-521.73 1849.08,-522.06 1843.72,-522.27 1838.37,-522.36 1833.02,-522.32 1827.67,-522.17 1822.34,-521.89 1817.03,-521.5 1811.73,-520.98 1806.45,-520.34 1801.2,-519.59 1795.99,-518.73 1790.81,-517.75 1785.68,-516.67 1780.61,-515.47 1775.59,-514.18 1770.65,-512.78 1765.78,-511.29 1761.01,-509.7 1756.34,-508.03 1751.79,-506.28 1747.37,-504.44 1743.09,-502.54 1738.97,-500.57 1735.03,-498.53 1731.28,-496.44 1727.74,-494.29 1724.42,-492.1 1721.35,-489.88 1718.54,-487.61 1716.01,-485.33 1713.77,-483.02 1711.84,-480.7 1710.25,-478.37 1709,-476.04 1708.1,-473.71 1707.58,-471.4 1707.45,-469.11 1707.71,-466.84 1708.37,-464.6 1709.45,-462.4 1710.95,-460.24 1712.87,-458.13 1715.21,-456.07 1717.99,-454.08 1721.18,-452.15 1724.8,-450.3 1728.83,-448.52 1733.26,-446.82 1738.09,-445.21 1743.3,-443.69 1748.87,-442.26 1754.79,-440.93 1761.04,-439.71 1767.59,-438.59 1774.43,-437.58 1781.52,-436.68 1788.84,-435.89 1796.37,-435.22 1804.06,-434.67 1811.9,-434.23 1819.85,-433.92 1827.87,-433.73 1835.94,-433.66 1844.02,-433.71 1852.08,-433.88"/>
<text text-anchor="middle" x="1837.84" y="-472.56" font-family="sans-serif" font-size="16.00">ProcesoDePagos</text>
</g>
<!-- ModelosDeFacturacion&#45;&gt;ProcesoDePagos -->
<g id="edge8" class="edge">
<title>ModelosDeFacturacion&#45;&gt;ProcesoDePagos</title>
<path fill="none" stroke="black" stroke-width="2" d="M1837.84,-583.56C1837.84,-564.53 1837.84,-542.04 1837.84,-522.8"/>
<text text-anchor="middle" x="1912.84" y="-547.75" font-family="sans-serif" font-size="12.00"> &#160;&#160;&#160;&#160;&#160;&#160;&#160;&#160;&#160;&#160;&#160;&#160;&#160;&#160;&#160;&#160;&#160;&#160;&#160;&#160;&#160;&#160;&#160;&#160;&#160;&#160;&#160;&#160;&#160;&#160;&#160;&#160;&#160;&#160;&#160;&#160;&#160;&#160;&#160;</text>
<polygon fill="white" stroke="none" points="1831.34,-513.67 1831.34,-531.92 1844.34,-531.92 1844.34,-513.67 1831.34,-513.67"/>
<text text-anchor="start" x="1833.34" y="-518.52" font-family="sans-serif" font-size="12.00">D</text>
<polygon fill="white" stroke="none" points="1831.34,-574.44 1831.34,-592.69 1844.34,-592.69 1844.34,-574.44 1831.34,-574.44"/>
<text text-anchor="start" x="1833.34" y="-579.29" font-family="sans-serif" font-size="12.00">U</text>
</g>
<!-- RelacionConProveedores -->
<g id="node14" class="node">
<title>RelacionConProveedores</title>
<polygon fill="none" stroke="black" stroke-width="2" points="787.86,-598.98 794.92,-601.23 801.56,-603.54 807.77,-605.91 813.5,-608.32 818.74,-610.76 823.47,-613.23 827.65,-615.72 831.28,-618.21 834.34,-620.71 836.8,-623.19 838.67,-625.66 839.94,-628.1 840.59,-630.52 840.63,-632.89 840.05,-635.22 838.86,-637.49 837.06,-639.71 834.67,-641.87 831.68,-643.96 828.13,-645.99 824.01,-647.93 819.36,-649.8 814.18,-651.58 808.51,-653.29 802.37,-654.9 795.79,-656.43 788.79,-657.87 781.4,-659.22 773.66,-660.48 765.59,-661.65 757.24,-662.72 748.63,-663.71 739.79,-664.6 730.77,-665.4 721.59,-666.11 712.29,-666.72 702.91,-667.25 693.47,-667.69 684.01,-668.04 674.56,-668.29 665.14,-668.47 655.8,-668.55 646.55,-668.54 637.43,-668.45 628.45,-668.27 619.65,-668 611.04,-667.65 602.64,-667.21 594.48,-666.68 586.56,-666.07 578.91,-665.37 571.54,-664.58 564.46,-663.71 557.67,-662.75 551.2,-661.7 545.05,-660.57 539.23,-659.35 533.73,-658.05 528.57,-656.66 523.74,-655.18 519.26,-653.63 515.12,-651.99 511.32,-650.27 507.87,-648.48 504.76,-646.61 501.99,-644.67 499.57,-642.65 497.48,-640.58 495.75,-638.44 494.35,-636.24 493.29,-633.99 492.57,-631.69 492.2,-629.36 492.16,-626.98 492.46,-624.58 493.1,-622.15 494.09,-619.72 495.41,-617.27 497.08,-614.82 499.09,-612.39 501.44,-609.97 504.14,-607.57 507.19,-605.21 510.58,-602.9 514.31,-600.63 518.39,-598.43 522.82,-596.3 527.59,-594.24 532.7,-592.27 538.14,-590.4 543.92,-588.63 550.03,-586.98 556.46,-585.44 563.2,-584.02 570.25,-582.74 577.59,-581.6 585.22,-580.6 593.11,-579.74 601.25,-579.04 609.64,-578.49 618.24,-578.1 627.03,-577.88 636,-577.81 645.13,-577.9 654.38,-578.15 663.73,-578.57 673.15,-579.14 682.62,-579.87 692.1,-580.75 701.57,-581.78 710.98,-582.95 720.31,-584.26 729.52,-585.71 738.58,-587.28 747.45,-588.98 756.11,-590.79 764.51,-592.7 772.62,-594.71 780.42,-596.81 787.86,-598.98"/>
<text text-anchor="middle" x="653.84" y="-621.1" font-family="sans-serif" font-size="16.00">RelacionConProveedores</text>
</g>
<!-- RelacionConProveedores&#45;&gt;ColaboracionConDesarrolladores -->
<g id="edge9" class="edge">
<title>RelacionConProveedores&#45;&gt;ColaboracionConDesarrolladores</title>
<path fill="none" stroke="black" stroke-width="2" d="M653.84,-577.98C653.84,-560.59 653.84,-541 653.84,-523.86"/>
<text text-anchor="middle" x="695.46" y="-547.75" font-family="sans-serif" font-size="12.00">Shared Kernel</text>
</g>
<!-- STAEnterprise -->
<g id="node15" class="node">
<title>STAEnterprise</title>
<polygon fill="none" stroke="black" stroke-width="2" points="2199.13,-293.35 2205.05,-295.01 2210.75,-296.75 2216.22,-298.58 2221.43,-300.49 2226.35,-302.46 2230.97,-304.5 2235.27,-306.59 2239.23,-308.72 2242.83,-310.9 2246.07,-313.11 2248.92,-315.35 2251.38,-317.61 2253.43,-319.88 2255.08,-322.16 2256.31,-324.44 2257.13,-326.72 2257.54,-328.98 2257.53,-331.22 2257.11,-333.45 2256.29,-335.65 2255.06,-337.81 2253.45,-339.94 2251.47,-342.03 2249.11,-344.07 2246.41,-346.06 2243.37,-348.01 2240.01,-349.89 2236.35,-351.72 2232.41,-353.48 2228.2,-355.18 2223.76,-356.81 2219.09,-358.38 2214.21,-359.87 2209.16,-361.28 2203.95,-362.62 2198.61,-363.88 2193.14,-365.06 2187.58,-366.16 2181.95,-367.17 2176.26,-368.1 2170.54,-368.93 2164.8,-369.68 2159.06,-370.34 2153.33,-370.9 2147.64,-371.38 2141.99,-371.75 2136.41,-372.03 2130.9,-372.21 2125.47,-372.28 2120.14,-372.26 2114.91,-372.14 2109.8,-371.91 2104.81,-371.58 2099.94,-371.14 2095.21,-370.6 2090.62,-369.95 2086.17,-369.2 2081.86,-368.34 2077.71,-367.37 2073.71,-366.3 2069.86,-365.12 2066.17,-363.85 2062.64,-362.47 2059.27,-360.99 2056.06,-359.42 2053.01,-357.75 2050.13,-355.99 2047.41,-354.14 2044.87,-352.21 2042.5,-350.19 2040.3,-348.11 2038.29,-345.95 2036.45,-343.73 2034.8,-341.45 2033.35,-339.12 2032.09,-336.74 2031.03,-334.33 2030.18,-331.88 2029.54,-329.41 2029.12,-326.92 2028.92,-324.43 2028.96,-321.93 2029.23,-319.45 2029.75,-316.98 2030.52,-314.54 2031.54,-312.13 2032.83,-309.76 2034.38,-307.44 2036.2,-305.18 2038.3,-302.99 2040.68,-300.88 2043.33,-298.85 2046.27,-296.91 2049.49,-295.07 2052.98,-293.33 2056.75,-291.71 2060.8,-290.2 2065.11,-288.81 2069.69,-287.55 2074.51,-286.43 2079.58,-285.43 2084.88,-284.58 2090.4,-283.87 2096.13,-283.31 2102.04,-282.89 2108.13,-282.62 2114.37,-282.49 2120.74,-282.51 2127.23,-282.68 2133.8,-282.99 2140.45,-283.45 2147.14,-284.04 2153.84,-284.77 2160.54,-285.64 2167.21,-286.63 2173.81,-287.75 2180.34,-288.98 2186.75,-290.33 2193.02,-291.79 2199.13,-293.35"/>
<text text-anchor="middle" x="2134.84" y="-324.01" font-family="sans-serif" font-size="16.00">STAEnterprise</text>
</g>
<!-- STAPro -->
<g id="node16" class="node">
<title>STAPro</title>
<polygon fill="none" stroke="black" stroke-width="2" points="2174.29,-441.46 2178.06,-443.07 2181.7,-444.78 2185.19,-446.57 2188.51,-448.44 2191.66,-450.38 2194.63,-452.38 2197.39,-454.44 2199.94,-456.55 2202.26,-458.7 2204.35,-460.89 2206.21,-463.11 2207.82,-465.35 2209.17,-467.6 2210.27,-469.87 2211.11,-472.14 2211.69,-474.41 2212,-476.67 2212.06,-478.92 2211.86,-481.14 2211.4,-483.35 2210.69,-485.52 2209.73,-487.66 2208.54,-489.76 2207.11,-491.82 2205.47,-493.83 2203.61,-495.8 2201.55,-497.7 2199.3,-499.56 2196.86,-501.35 2194.27,-503.08 2191.51,-504.74 2188.62,-506.34 2185.59,-507.86 2182.45,-509.31 2179.21,-510.68 2175.89,-511.98 2172.48,-513.2 2169.01,-514.34 2165.5,-515.39 2161.95,-516.35 2158.37,-517.23 2154.78,-518.02 2151.18,-518.72 2147.6,-519.32 2144.03,-519.83 2140.49,-520.25 2136.99,-520.56 2133.52,-520.78 2130.11,-520.9 2126.76,-520.91 2123.47,-520.83 2120.24,-520.63 2117.1,-520.34 2114.02,-519.93 2111.03,-519.43 2108.13,-518.81 2105.31,-518.09 2102.58,-517.26 2099.94,-516.32 2097.39,-515.28 2094.94,-514.13 2092.58,-512.88 2090.32,-511.53 2088.16,-510.07 2086.1,-508.52 2084.14,-506.87 2082.28,-505.13 2080.52,-503.3 2078.87,-501.39 2077.32,-499.39 2075.88,-497.32 2074.56,-495.18 2073.34,-492.97 2072.24,-490.71 2071.26,-488.39 2070.41,-486.02 2069.67,-483.61 2069.07,-481.17 2068.6,-478.71 2068.27,-476.22 2068.08,-473.73 2068.03,-471.23 2068.14,-468.75 2068.4,-466.27 2068.81,-463.83 2069.39,-461.41 2070.14,-459.03 2071.05,-456.71 2072.13,-454.44 2073.39,-452.23 2074.83,-450.1 2076.45,-448.05 2078.24,-446.09 2080.21,-444.23 2082.36,-442.47 2084.69,-440.81 2087.2,-439.28 2089.87,-437.86 2092.71,-436.57 2095.72,-435.41 2098.88,-434.38 2102.19,-433.5 2105.65,-432.75 2109.23,-432.14 2112.94,-431.68 2116.76,-431.37 2120.68,-431.2 2124.69,-431.18 2128.77,-431.3 2132.92,-431.56 2137.11,-431.97 2141.33,-432.52 2145.57,-433.2 2149.81,-434.02 2154.03,-434.96 2158.22,-436.03 2162.35,-437.22 2166.42,-438.53 2170.41,-439.94 2174.29,-441.46"/>
<text text-anchor="middle" x="2134.84" y="-472.56" font-family="sans-serif" font-size="16.00">STAPro</text>
</g>
<!-- STAPro&#45;&gt;STAEnterprise -->
<g id="edge10" class="edge">
<title>STAPro&#45;&gt;STAEnterprise</title>
<path fill="none" stroke="black" stroke-width="2" d="M2134.84,-431.44C2134.84,-412.62 2134.84,-390.94 2134.84,-372.5"/>
<text text-anchor="middle" x="2209.84" y="-399.72" font-family="sans-serif" font-size="12.00"> &#160;&#160;&#160;&#160;&#160;&#160;&#160;&#160;&#160;&#160;&#160;&#160;&#160;&#160;&#160;&#160;&#160;&#160;&#160;&#160;&#160;&#160;&#160;&#160;&#160;&#160;&#160;&#160;&#160;&#160;&#160;&#160;&#160;&#160;&#160;&#160;&#160;&#160;&#160;</text>
<polygon fill="white" stroke="none" points="2128.34,-363.38 2128.34,-381.63 2141.34,-381.63 2141.34,-363.38 2128.34,-363.38"/>
<text text-anchor="start" x="2130.34" y="-368.23" font-family="sans-serif" font-size="12.00">D</text>
<polygon fill="white" stroke="none" points="2128.34,-422.32 2128.34,-440.57 2141.34,-440.57 2141.34,-422.32 2128.34,-422.32"/>
<text text-anchor="start" x="2130.34" y="-427.17" font-family="sans-serif" font-size="12.00">U</text>
</g>
<!-- STAStandard -->
<g id="node17" class="node">
<title>STAStandard</title>
<polygon fill="none" stroke="black" stroke-width="2" points="2051.12,-652.89 2047.01,-650.58 2043.16,-648.21 2039.58,-645.79 2036.3,-643.33 2033.31,-640.84 2030.64,-638.33 2028.3,-635.81 2026.3,-633.28 2024.64,-630.76 2023.35,-628.26 2022.41,-625.77 2021.84,-623.32 2021.64,-620.9 2021.81,-618.53 2022.35,-616.21 2023.26,-613.94 2024.54,-611.74 2026.17,-609.61 2028.15,-607.54 2030.48,-605.55 2033.14,-603.65 2036.12,-601.82 2039.42,-600.09 2043,-598.44 2046.86,-596.88 2050.99,-595.41 2055.36,-594.03 2059.96,-592.75 2064.77,-591.56 2069.77,-590.47 2074.94,-589.47 2080.25,-588.57 2085.69,-587.76 2091.24,-587.04 2096.88,-586.41 2102.58,-585.88 2108.33,-585.44 2114.1,-585.09 2119.88,-584.83 2125.65,-584.65 2131.38,-584.57 2137.07,-584.57 2142.69,-584.66 2148.23,-584.83 2153.67,-585.09 2159,-585.44 2164.21,-585.87 2169.27,-586.39 2174.19,-586.99 2178.96,-587.67 2183.55,-588.44 2187.97,-589.29 2192.2,-590.23 2196.24,-591.25 2200.09,-592.36 2203.74,-593.55 2207.18,-594.82 2210.41,-596.17 2213.44,-597.61 2216.25,-599.12 2218.85,-600.72 2221.23,-602.39 2223.4,-604.14 2225.35,-605.97 2227.09,-607.87 2228.61,-609.83 2229.92,-611.87 2231.02,-613.96 2231.9,-616.11 2232.57,-618.32 2233.03,-620.58 2233.28,-622.88 2233.32,-625.22 2233.14,-627.59 2232.76,-629.99 2232.18,-632.41 2231.38,-634.84 2230.37,-637.27 2229.16,-639.7 2227.74,-642.12 2226.11,-644.52 2224.27,-646.88 2222.23,-649.21 2219.98,-651.5 2217.53,-653.73 2214.87,-655.89 2212,-657.98 2208.94,-659.99 2205.67,-661.91 2202.21,-663.73 2198.55,-665.45 2194.7,-667.05 2190.67,-668.53 2186.45,-669.88 2182.06,-671.1 2177.51,-672.18 2172.79,-673.11 2167.93,-673.89 2162.92,-674.52 2157.78,-674.99 2152.52,-675.3 2147.15,-675.45 2141.69,-675.44 2136.16,-675.26 2130.55,-674.92 2124.9,-674.42 2119.22,-673.77 2113.53,-672.95 2107.83,-671.99 2102.17,-670.87 2096.54,-669.61 2090.98,-668.22 2085.5,-666.69 2080.12,-665.03 2074.86,-663.26 2069.75,-661.37 2064.8,-659.39 2060.03,-657.3 2055.46,-655.14 2051.12,-652.89"/>
<text text-anchor="middle" x="2134.84" y="-621.1" font-family="sans-serif" font-size="16.00">STAStandard</text>
</g>
<!-- STAStandard&#45;&gt;STAPro -->
<g id="edge11" class="edge">
<title>STAStandard&#45;&gt;STAPro</title>
<path fill="none" stroke="black" stroke-width="2" d="M2134.84,-584.34C2134.84,-564.62 2134.84,-541.03 2134.84,-521.19"/>
<text text-anchor="middle" x="2209.84" y="-547.75" font-family="sans-serif" font-size="12.00"> &#160;&#160;&#160;&#160;&#160;&#160;&#160;&#160;&#160;&#160;&#160;&#160;&#160;&#160;&#160;&#160;&#160;&#160;&#160;&#160;&#160;&#160;&#160;&#160;&#160;&#160;&#160;&#160;&#160;&#160;&#160;&#160;&#160;&#160;&#160;&#160;&#160;&#160;&#160;</text>
<polygon fill="white" stroke="none" points="2128.34,-512.06 2128.34,-530.31 2141.34,-530.31 2141.34,-512.06 2128.34,-512.06"/>
<text text-anchor="start" x="2130.34" y="-516.91" font-family="sans-serif" font-size="12.00">D</text>
<polygon fill="white" stroke="none" points="2128.34,-575.22 2128.34,-593.47 2141.34,-593.47 2141.34,-575.22 2128.34,-575.22"/>
<text text-anchor="start" x="2130.34" y="-580.07" font-family="sans-serif" font-size="12.00">U</text>
</g>
</g>
</svg>
