<svg width="2000px" height="606px"
 viewBox="0.00 0.00 2301.76 696.87" xmlns="http://www.w3.org/2000/svg" xmlns:xlink="http://www.w3.org/1999/xlink">
<g id="graph0" class="graph" transform="scale(1.0 1.0) rotate(0) translate(4 692.87)">
<title>ContextMapGraph</title>
<polygon fill="white" stroke="none" points="-4,4 -4,-692.87 2297.76,-692.87 2297.76,4 -4,4"/>
<!-- AlmacenamientoDeImagenes -->
<g id="node1" class="node">
<title>AlmacenamientoDeImagenes</title>
<polygon fill="none" stroke="black" stroke-width="2" points="342.02,-12.04 352.41,-13.78 362.4,-15.61 371.95,-17.51 381.02,-19.49 389.57,-21.53 397.56,-23.63 404.96,-25.78 411.75,-27.97 417.89,-30.2 423.36,-32.45 428.14,-34.73 432.21,-37.02 435.55,-39.32 438.16,-41.62 440.02,-43.92 441.14,-46.2 441.52,-48.47 441.15,-50.71 440.05,-52.93 438.22,-55.12 435.69,-57.26 432.46,-59.37 428.56,-61.43 424.01,-63.43 418.84,-65.39 413.07,-67.29 406.73,-69.12 399.87,-70.9 392.5,-72.61 384.67,-74.25 376.42,-75.81 367.77,-77.31 358.78,-78.73 349.47,-80.07 339.89,-81.34 330.08,-82.52 320.07,-83.62 309.9,-84.64 299.62,-85.57 289.24,-86.42 278.82,-87.18 268.37,-87.84 257.94,-88.42 247.56,-88.91 237.25,-89.3 227.03,-89.59 216.95,-89.79 207.01,-89.89 197.23,-89.89 187.65,-89.8 178.27,-89.6 169.11,-89.3 160.18,-88.9 151.5,-88.39 143.08,-87.78 134.92,-87.07 127.03,-86.25 119.43,-85.33 112.11,-84.31 105.07,-83.18 98.34,-81.96 91.9,-80.63 85.76,-79.2 79.93,-77.67 74.4,-76.06 69.18,-74.34 64.27,-72.54 59.68,-70.66 55.41,-68.69 51.46,-66.65 47.83,-64.53 44.54,-62.35 41.59,-60.11 38.98,-57.8 36.72,-55.45 34.83,-53.06 33.3,-50.63 32.15,-48.18 31.38,-45.7 31.01,-43.21 31.05,-40.71 31.51,-38.22 32.39,-35.74 33.7,-33.28 35.47,-30.84 37.68,-28.45 40.37,-26.1 43.52,-23.81 47.15,-21.58 51.27,-19.42 55.87,-17.34 60.96,-15.35 66.55,-13.45 72.62,-11.66 79.18,-9.97 86.22,-8.4 93.73,-6.95 101.7,-5.62 110.12,-4.43 118.98,-3.37 128.25,-2.45 137.92,-1.67 147.96,-1.04 158.34,-0.56 169.04,-0.22 180.03,-0.04 191.27,0 202.73,-0.11 214.37,-0.37 226.15,-0.77 238.03,-1.32 249.96,-2.01 261.91,-2.83 273.82,-3.79 285.66,-4.88 297.37,-6.08 308.91,-7.41 320.23,-8.85 331.28,-10.4 342.02,-12.04"/>
<text text-anchor="middle" x="220.76" y="-41.77" font-family="sans-serif" font-size="16.00">AlmacenamientoDeImagenes</text>
</g>
<!-- AnonimizacionDeImagenes -->
<g id="node2" class="node">
<title>AnonimizacionDeImagenes</title>
<polygon fill="none" stroke="black" stroke-width="2" points="398.77,-206 395.47,-208.79 391.69,-211.53 387.46,-214.21 382.78,-216.81 377.68,-219.33 372.17,-221.75 366.26,-224.07 359.98,-226.27 353.34,-228.35 346.37,-230.3 339.08,-232.12 331.49,-233.79 323.64,-235.31 315.53,-236.68 307.19,-237.89 298.65,-238.95 289.92,-239.84 281.04,-240.57 272.01,-241.13 262.87,-241.53 253.64,-241.77 244.34,-241.85 235,-241.77 225.63,-241.54 216.26,-241.16 206.92,-240.64 197.62,-239.97 188.39,-239.17 179.26,-238.25 170.23,-237.2 161.34,-236.04 152.6,-234.77 144.04,-233.4 135.67,-231.93 127.52,-230.39 119.61,-228.76 111.95,-227.07 104.57,-225.31 97.48,-223.49 90.7,-221.63 84.24,-219.72 78.13,-217.78 72.39,-215.81 67.02,-213.81 62.03,-211.79 57.46,-209.77 53.3,-207.73 49.57,-205.69 46.28,-203.65 43.45,-201.61 41.07,-199.58 39.17,-197.56 37.75,-195.55 36.81,-193.56 36.36,-191.58 36.41,-189.62 36.95,-187.68 37.99,-185.76 39.53,-183.87 41.57,-181.99 44.11,-180.15 47.14,-178.32 50.65,-176.53 54.65,-174.77 59.11,-173.03 64.04,-171.33 69.42,-169.66 75.24,-168.02 81.49,-166.42 88.14,-164.87 95.19,-163.35 102.61,-161.88 110.38,-160.46 118.49,-159.09 126.91,-157.78 135.61,-156.52 144.58,-155.33 153.79,-154.21 163.21,-153.16 172.81,-152.19 182.57,-151.31 192.45,-150.51 202.43,-149.8 212.48,-149.2 222.56,-148.69 232.65,-148.3 242.72,-148.02 252.73,-147.86 262.66,-147.82 272.46,-147.9 282.13,-148.12 291.61,-148.47 300.89,-148.95 309.94,-149.58 318.72,-150.35 327.22,-151.25 335.4,-152.3 343.25,-153.49 350.73,-154.82 357.83,-156.29 364.53,-157.9 370.8,-159.64 376.63,-161.52 382,-163.51 386.9,-165.63 391.32,-167.86 395.23,-170.19 398.64,-172.62 401.53,-175.15 403.91,-177.75 405.75,-180.43 407.07,-183.17 407.86,-185.96 408.12,-188.79 407.85,-191.66 407.06,-194.53 405.74,-197.42 403.92,-200.3 401.59,-203.16 398.77,-206"/>
<text text-anchor="middle" x="220.76" y="-187.82" font-family="sans-serif" font-size="16.00">AnonimizacionDeImagenes</text>
</g>
<!-- AnonimizacionDeImagenes&#45;&gt;AlmacenamientoDeImagenes -->
<g id="edge1" class="edge">
<title>AnonimizacionDeImagenes&#45;&gt;AlmacenamientoDeImagenes</title>
<path fill="none" stroke="black" stroke-width="2" d="M220.76,-148.66C220.76,-130.11 220.76,-108.57 220.76,-90.2"/>
<text text-anchor="middle" x="295.76" y="-115.3" font-family="sans-serif" font-size="12.00"> &#160;&#160;&#160;&#160;&#160;&#160;&#160;&#160;&#160;&#160;&#160;&#160;&#160;&#160;&#160;&#160;&#160;&#160;&#160;&#160;&#160;&#160;&#160;&#160;&#160;&#160;&#160;&#160;&#160;&#160;&#160;&#160;&#160;&#160;&#160;&#160;&#160;&#160;&#160;</text>
<polygon fill="white" stroke="none" points="214.26,-81.08 214.26,-99.33 227.26,-99.33 227.26,-81.08 214.26,-81.08"/>
<text text-anchor="start" x="216.26" y="-85.93" font-family="sans-serif" font-size="12.00">D</text>
<polygon fill="white" stroke="none" points="214.26,-139.54 214.26,-157.79 227.26,-157.79 227.26,-139.54 214.26,-139.54"/>
<text text-anchor="start" x="216.26" y="-144.39" font-family="sans-serif" font-size="12.00">U</text>
</g>
<!-- CapturaDeDatos -->
<g id="node3" class="node">
<title>CapturaDeDatos</title>
<polygon fill="none" stroke="black" stroke-width="2" points="135.53,-607.16 141.34,-605.14 147.36,-603.22 153.55,-601.41 159.89,-599.71 166.36,-598.14 172.93,-596.7 179.59,-595.4 186.3,-594.24 193.05,-593.24 199.81,-592.38 206.56,-591.68 213.29,-591.14 219.96,-590.76 226.56,-590.54 233.08,-590.49 239.5,-590.6 245.79,-590.87 251.95,-591.31 257.96,-591.9 263.81,-592.64 269.49,-593.54 274.98,-594.58 280.28,-595.76 285.38,-597.08 290.27,-598.53 294.94,-600.1 299.39,-601.79 303.62,-603.59 307.61,-605.48 311.37,-607.47 314.89,-609.54 318.17,-611.68 321.22,-613.89 324.01,-616.16 326.57,-618.48 328.87,-620.83 330.94,-623.21 332.75,-625.62 334.32,-628.04 335.64,-630.47 336.71,-632.89 337.53,-635.3 338.1,-637.7 338.42,-640.07 338.49,-642.41 338.3,-644.71 337.86,-646.97 337.17,-649.18 336.22,-651.34 335.02,-653.45 333.55,-655.49 331.83,-657.47 329.85,-659.38 327.6,-661.22 325.1,-662.98 322.34,-664.67 319.31,-666.29 316.03,-667.83 312.49,-669.28 308.69,-670.66 304.64,-671.96 300.35,-673.17 295.8,-674.31 291.03,-675.36 286.02,-676.33 280.79,-677.21 275.34,-678.02 269.69,-678.74 263.84,-679.37 257.81,-679.93 251.62,-680.4 245.27,-680.78 238.79,-681.08 232.18,-681.3 225.48,-681.43 218.69,-681.48 211.83,-681.43 204.94,-681.3 198.03,-681.08 191.11,-680.78 184.23,-680.38 177.39,-679.89 170.63,-679.3 163.97,-678.63 157.43,-677.86 151.04,-676.99 144.82,-676.03 138.8,-674.98 133,-673.83 127.45,-672.58 122.16,-671.24 117.16,-669.8 112.47,-668.27 108.11,-666.65 104.09,-664.93 100.44,-663.13 97.17,-661.24 94.3,-659.27 91.83,-657.23 89.78,-655.1 88.15,-652.91 86.95,-650.65 86.19,-648.34 85.87,-645.96 85.99,-643.55 86.55,-641.09 87.55,-638.6 88.97,-636.08 90.83,-633.55 93.09,-631.01 95.77,-628.47 98.83,-625.94 102.27,-623.43 106.08,-620.95 110.24,-618.5 114.72,-616.1 119.51,-613.76 124.59,-611.48 129.94,-609.28 135.53,-607.16"/>
<text text-anchor="middle" x="220.76" y="-634.02" font-family="sans-serif" font-size="16.00">CapturaDeDatos</text>
</g>
<!-- ProcesamientoDeImagenes -->
<g id="node4" class="node">
<title>ProcesamientoDeImagenes</title>
<polygon fill="none" stroke="black" stroke-width="2" points="74.06,-463.25 81.31,-460.93 88.92,-458.69 96.86,-456.55 105.11,-454.53 113.62,-452.61 122.37,-450.82 131.33,-449.17 140.47,-447.65 149.76,-446.27 159.17,-445.05 168.66,-443.98 178.22,-443.07 187.81,-442.32 197.4,-441.74 206.98,-441.32 216.5,-441.07 225.96,-440.99 235.32,-441.07 244.56,-441.32 253.67,-441.72 262.62,-442.29 271.4,-443.01 279.98,-443.89 288.36,-444.91 296.51,-446.06 304.42,-447.35 312.08,-448.77 319.48,-450.31 326.6,-451.96 333.44,-453.71 339.98,-455.55 346.22,-457.49 352.14,-459.5 357.74,-461.58 363.02,-463.73 367.95,-465.92 372.55,-468.16 376.79,-470.44 380.68,-472.74 384.21,-475.06 387.36,-477.4 390.15,-479.73 392.55,-482.07 394.57,-484.39 396.2,-486.7 397.43,-488.98 398.26,-491.24 398.68,-493.46 398.69,-495.65 398.28,-497.8 397.46,-499.89 396.21,-501.94 394.53,-503.94 392.43,-505.88 389.89,-507.77 386.92,-509.59 383.51,-511.36 379.67,-513.06 375.41,-514.7 370.71,-516.27 365.59,-517.78 360.05,-519.22 354.1,-520.59 347.74,-521.9 340.99,-523.14 333.85,-524.3 326.35,-525.4 318.49,-526.43 310.29,-527.39 301.77,-528.27 292.94,-529.08 283.84,-529.82 274.48,-530.48 264.88,-531.06 255.08,-531.57 245.11,-531.99 234.98,-532.33 224.73,-532.59 214.4,-532.76 204.01,-532.85 193.6,-532.84 183.21,-532.74 172.86,-532.54 162.6,-532.24 152.46,-531.85 142.48,-531.35 132.69,-530.75 123.13,-530.05 113.83,-529.23 104.83,-528.31 96.16,-527.28 87.85,-526.14 79.94,-524.89 72.45,-523.54 65.42,-522.07 58.86,-520.49 52.81,-518.81 47.29,-517.03 42.31,-515.14 37.9,-513.16 34.07,-511.09 30.83,-508.92 28.2,-506.68 26.18,-504.35 24.78,-501.96 24,-499.5 23.85,-496.98 24.31,-494.42 25.39,-491.82 27.07,-489.18 29.36,-486.52 32.22,-483.85 35.66,-481.18 39.65,-478.51 44.18,-475.86 49.22,-473.24 54.75,-470.66 60.76,-468.13 67.2,-465.66 74.06,-463.25"/>
<text text-anchor="middle" x="220.76" y="-484.94" font-family="sans-serif" font-size="16.00">ProcesamientoDeImagenes</text>
</g>
<!-- CapturaDeDatos&#45;&gt;ProcesamientoDeImagenes -->
<g id="edge2" class="edge">
<title>CapturaDeDatos&#45;&gt;ProcesamientoDeImagenes</title>
<path fill="none" stroke="black" stroke-width="2" d="M220.76,-590.31C220.76,-571.71 220.76,-550.64 220.76,-532.74"/>
<text text-anchor="middle" x="295.76" y="-560.67" font-family="sans-serif" font-size="12.00"> &#160;&#160;&#160;&#160;&#160;&#160;&#160;&#160;&#160;&#160;&#160;&#160;&#160;&#160;&#160;&#160;&#160;&#160;&#160;&#160;&#160;&#160;&#160;&#160;&#160;&#160;&#160;&#160;&#160;&#160;&#160;&#160;&#160;&#160;&#160;&#160;&#160;&#160;&#160;</text>
<polygon fill="white" stroke="none" points="214.26,-523.62 214.26,-541.87 227.26,-541.87 227.26,-523.62 214.26,-523.62"/>
<text text-anchor="start" x="216.26" y="-528.47" font-family="sans-serif" font-size="12.00">D</text>
<polygon fill="white" stroke="none" points="214.26,-581.18 214.26,-599.43 227.26,-599.43 227.26,-581.18 214.26,-581.18"/>
<text text-anchor="start" x="216.26" y="-586.03" font-family="sans-serif" font-size="12.00">U</text>
</g>
<!-- VerificacionDeCalidad -->
<g id="node5" class="node">
<title>VerificacionDeCalidad</title>
<polygon fill="none" stroke="black" stroke-width="2" points="373.67,-334.18 375.46,-337.04 376.82,-339.89 377.74,-342.74 378.22,-345.57 378.24,-348.37 377.81,-351.13 376.93,-353.83 375.59,-356.47 373.79,-359.03 371.55,-361.52 368.86,-363.91 365.73,-366.21 362.17,-368.4 358.18,-370.48 353.79,-372.45 348.99,-374.29 343.81,-376 338.26,-377.59 332.36,-379.04 326.12,-380.36 319.57,-381.54 312.72,-382.59 305.59,-383.5 298.22,-384.28 290.61,-384.92 282.81,-385.42 274.82,-385.8 266.68,-386.05 258.41,-386.17 250.04,-386.18 241.6,-386.07 233.11,-385.84 224.59,-385.51 216.09,-385.07 207.61,-384.53 199.19,-383.9 190.86,-383.18 182.63,-382.37 174.54,-381.48 166.61,-380.52 158.85,-379.48 151.3,-378.38 143.98,-377.21 136.9,-375.98 130.09,-374.69 123.56,-373.35 117.32,-371.95 111.41,-370.51 105.82,-369.02 100.58,-367.48 95.7,-365.91 91.18,-364.29 87.05,-362.64 83.29,-360.94 79.93,-359.21 76.97,-357.44 74.41,-355.64 72.26,-353.81 70.51,-351.94 69.18,-350.05 68.25,-348.12 67.74,-346.17 67.63,-344.19 67.93,-342.18 68.62,-340.15 69.71,-338.1 71.19,-336.04 73.06,-333.96 75.3,-331.87 77.9,-329.77 80.87,-327.67 84.18,-325.57 87.84,-323.48 91.82,-321.4 96.12,-319.34 100.73,-317.3 105.64,-315.29 110.83,-313.31 116.29,-311.39 122,-309.51 127.96,-307.69 134.15,-305.93 140.55,-304.25 147.16,-302.65 153.95,-301.15 160.91,-299.73 168.03,-298.43 175.28,-297.23 182.66,-296.15 190.15,-295.2 197.72,-294.38 205.37,-293.7 213.07,-293.17 220.8,-292.78 228.56,-292.55 236.32,-292.47 244.06,-292.56 251.76,-292.81 259.41,-293.22 266.98,-293.8 274.46,-294.54 281.82,-295.45 289.05,-296.52 296.13,-297.75 303.04,-299.14 309.76,-300.68 316.26,-302.37 322.54,-304.2 328.57,-306.16 334.33,-308.25 339.81,-310.47 344.99,-312.79 349.85,-315.22 354.37,-317.74 358.54,-320.34 362.35,-323.01 365.78,-325.74 368.82,-328.52 371.45,-331.34 373.67,-334.18"/>
<text text-anchor="middle" x="220.76" y="-335.95" font-family="sans-serif" font-size="16.00">VerificacionDeCalidad</text>
</g>
<!-- ProcesamientoDeImagenes&#45;&gt;VerificacionDeCalidad -->
<g id="edge3" class="edge">
<title>ProcesamientoDeImagenes&#45;&gt;VerificacionDeCalidad</title>
<path fill="none" stroke="black" stroke-width="2" d="M220.76,-440.85C220.76,-422.96 220.76,-402.82 220.76,-385.45"/>
<text text-anchor="middle" x="295.76" y="-411.55" font-family="sans-serif" font-size="12.00"> &#160;&#160;&#160;&#160;&#160;&#160;&#160;&#160;&#160;&#160;&#160;&#160;&#160;&#160;&#160;&#160;&#160;&#160;&#160;&#160;&#160;&#160;&#160;&#160;&#160;&#160;&#160;&#160;&#160;&#160;&#160;&#160;&#160;&#160;&#160;&#160;&#160;&#160;&#160;</text>
<polygon fill="white" stroke="none" points="214.26,-376.32 214.26,-394.57 227.26,-394.57 227.26,-376.32 214.26,-376.32"/>
<text text-anchor="start" x="216.26" y="-381.17" font-family="sans-serif" font-size="12.00">D</text>
<polygon fill="white" stroke="none" points="214.26,-431.73 214.26,-449.98 227.26,-449.98 227.26,-431.73 214.26,-431.73"/>
<text text-anchor="start" x="216.26" y="-436.58" font-family="sans-serif" font-size="12.00">U</text>
</g>
<!-- VerificacionDeCalidad&#45;&gt;AnonimizacionDeImagenes -->
<g id="edge4" class="edge">
<title>VerificacionDeCalidad&#45;&gt;AnonimizacionDeImagenes</title>
<path fill="none" stroke="black" stroke-width="2" d="M220.76,-292.55C220.76,-276.24 220.76,-258.01 220.76,-241.73"/>
<text text-anchor="middle" x="295.76" y="-262.7" font-family="sans-serif" font-size="12.00"> &#160;&#160;&#160;&#160;&#160;&#160;&#160;&#160;&#160;&#160;&#160;&#160;&#160;&#160;&#160;&#160;&#160;&#160;&#160;&#160;&#160;&#160;&#160;&#160;&#160;&#160;&#160;&#160;&#160;&#160;&#160;&#160;&#160;&#160;&#160;&#160;&#160;&#160;&#160;</text>
<polygon fill="white" stroke="none" points="214.26,-232.6 214.26,-250.85 227.26,-250.85 227.26,-232.6 214.26,-232.6"/>
<text text-anchor="start" x="216.26" y="-237.45" font-family="sans-serif" font-size="12.00">D</text>
<polygon fill="white" stroke="none" points="214.26,-283.43 214.26,-301.68 227.26,-301.68 227.26,-283.43 214.26,-283.43"/>
<text text-anchor="start" x="216.26" y="-288.28" font-family="sans-serif" font-size="12.00">U</text>
</g>
<!-- ColaboracionConDesarrolladores -->
<g id="node6" class="node">
<title>ColaboracionConDesarrolladores</title>
<polygon fill="none" stroke="black" stroke-width="2" points="868.62,-481.64 871.6,-484.47 873.98,-487.32 875.75,-490.16 876.89,-492.98 877.4,-495.78 877.27,-498.53 876.49,-501.24 875.07,-503.89 873.01,-506.48 870.3,-508.98 866.96,-511.4 862.99,-513.73 858.4,-515.95 853.2,-518.07 847.4,-520.08 841.04,-521.97 834.11,-523.74 826.64,-525.38 818.66,-526.89 810.19,-528.27 801.26,-529.52 791.89,-530.63 782.12,-531.61 771.98,-532.46 761.49,-533.17 750.7,-533.76 739.63,-534.22 728.33,-534.55 716.83,-534.76 705.17,-534.84 693.38,-534.82 681.51,-534.68 669.59,-534.43 657.66,-534.07 645.76,-533.62 633.92,-533.08 622.18,-532.44 610.58,-531.71 599.16,-530.91 587.94,-530.02 576.96,-529.06 566.25,-528.03 555.84,-526.94 545.77,-525.78 536.05,-524.56 526.72,-523.28 517.8,-521.95 509.32,-520.57 501.28,-519.14 493.72,-517.66 486.65,-516.13 480.08,-514.56 474.03,-512.94 468.51,-511.29 463.53,-509.59 459.11,-507.86 455.23,-506.08 451.92,-504.27 449.18,-502.43 447,-500.54 445.38,-498.63 444.33,-496.68 443.85,-494.7 443.92,-492.69 444.54,-490.66 445.72,-488.6 447.43,-486.52 449.67,-484.43 452.44,-482.32 455.71,-480.19 459.49,-478.06 463.75,-475.93 468.49,-473.81 473.69,-471.69 479.33,-469.58 485.41,-467.5 491.9,-465.44 498.8,-463.42 506.08,-461.43 513.72,-459.5 521.72,-457.62 530.05,-455.81 538.68,-454.06 547.62,-452.4 556.82,-450.82 566.29,-449.34 575.98,-447.96 585.89,-446.7 595.99,-445.55 606.26,-444.52 616.67,-443.63 627.21,-442.87 637.85,-442.26 648.57,-441.8 659.34,-441.49 670.14,-441.33 680.94,-441.34 691.71,-441.51 702.44,-441.85 713.09,-442.35 723.63,-443.02 734.05,-443.85 744.31,-444.85 754.38,-446.01 764.25,-447.32 773.87,-448.8 783.22,-450.42 792.28,-452.18 801.01,-454.09 809.4,-456.12 817.41,-458.28 825.02,-460.55 832.2,-462.93 838.93,-465.4 845.19,-467.95 850.95,-470.59 856.19,-473.28 860.9,-476.03 865.04,-478.82 868.62,-481.64"/>
<text text-anchor="middle" x="656.76" y="-484.94" font-family="sans-serif" font-size="16.00">ColaboracionConDesarrolladores</text>
</g>
<!-- CumplimientoDeNormativas -->
<g id="node7" class="node">
<title>CumplimientoDeNormativas</title>
<polygon fill="none" stroke="black" stroke-width="2" points="1239.94,-648.44 1237.6,-651.29 1234.76,-654.1 1231.42,-656.85 1227.61,-659.54 1223.32,-662.16 1218.58,-664.68 1213.4,-667.11 1207.79,-669.44 1201.76,-671.65 1195.35,-673.74 1188.56,-675.7 1181.42,-677.52 1173.94,-679.2 1166.14,-680.74 1158.06,-682.12 1149.7,-683.35 1141.09,-684.41 1132.25,-685.32 1123.22,-686.08 1114,-686.67 1104.63,-687.1 1095.13,-687.37 1085.53,-687.49 1075.85,-687.45 1066.11,-687.27 1056.33,-686.94 1046.56,-686.47 1036.8,-685.87 1027.09,-685.14 1017.45,-684.28 1007.9,-683.31 998.47,-682.23 989.18,-681.04 980.06,-679.76 971.13,-678.38 962.42,-676.93 953.93,-675.4 945.71,-673.8 937.76,-672.14 930.11,-670.42 922.79,-668.66 915.8,-666.85 909.17,-665.01 902.92,-663.13 897.06,-661.23 891.61,-659.3 886.58,-657.36 882,-655.41 877.86,-653.44 874.2,-651.47 871,-649.5 868.3,-647.53 866.08,-645.55 864.37,-643.59 863.17,-641.63 862.49,-639.67 862.31,-637.73 862.66,-635.79 863.53,-633.87 864.92,-631.97 866.83,-630.07 869.24,-628.2 872.17,-626.34 875.61,-624.49 879.53,-622.67 883.95,-620.87 888.83,-619.1 894.18,-617.35 899.98,-615.62 906.22,-613.93 912.87,-612.28 919.92,-610.66 927.35,-609.08 935.15,-607.55 943.28,-606.06 951.73,-604.63 960.48,-603.26 969.49,-601.95 978.75,-600.71 988.23,-599.55 997.89,-598.46 1007.72,-597.46 1017.68,-596.55 1027.75,-595.73 1037.9,-595.02 1048.09,-594.42 1058.3,-593.93 1068.49,-593.56 1078.65,-593.31 1088.73,-593.19 1098.71,-593.21 1108.56,-593.36 1118.25,-593.65 1127.76,-594.08 1137.05,-594.66 1146.1,-595.39 1154.87,-596.26 1163.36,-597.29 1171.53,-598.46 1179.35,-599.77 1186.82,-601.24 1193.9,-602.84 1200.57,-604.58 1206.83,-606.46 1212.64,-608.46 1218,-610.59 1222.89,-612.84 1227.29,-615.19 1231.2,-617.64 1234.61,-620.19 1237.51,-622.82 1239.88,-625.52 1241.74,-628.29 1243.06,-631.1 1243.86,-633.96 1244.13,-636.84 1243.87,-639.75 1243.08,-642.65 1241.77,-645.55 1239.94,-648.44"/>
<text text-anchor="middle" x="1052.76" y="-634.02" font-family="sans-serif" font-size="16.00">CumplimientoDeNormativas</text>
</g>
<!-- SeguridadDeDatos -->
<g id="node8" class="node">
<title>SeguridadDeDatos</title>
<polygon fill="none" stroke="black" stroke-width="2" points="1002.71,-449.01 1011.02,-447.91 1019.42,-446.93 1027.88,-446.08 1036.35,-445.36 1044.81,-444.77 1053.23,-444.32 1061.56,-444.01 1069.8,-443.84 1077.89,-443.81 1085.82,-443.92 1093.56,-444.17 1101.09,-444.57 1108.38,-445.12 1115.41,-445.8 1122.16,-446.63 1128.62,-447.59 1134.76,-448.68 1140.59,-449.91 1146.07,-451.26 1151.21,-452.74 1156,-454.33 1160.43,-456.04 1164.5,-457.84 1168.2,-459.75 1171.54,-461.75 1174.51,-463.83 1177.13,-465.99 1179.38,-468.23 1181.29,-470.52 1182.84,-472.86 1184.06,-475.26 1184.94,-477.68 1185.5,-480.14 1185.75,-482.62 1185.69,-485.11 1185.33,-487.6 1184.68,-490.09 1183.76,-492.56 1182.56,-495.01 1181.1,-497.44 1179.39,-499.83 1177.44,-502.18 1175.25,-504.47 1172.83,-506.71 1170.19,-508.89 1167.33,-511 1164.26,-513.04 1160.99,-515 1157.51,-516.88 1153.84,-518.66 1149.97,-520.36 1145.91,-521.96 1141.66,-523.47 1137.23,-524.87 1132.61,-526.18 1127.81,-527.37 1122.83,-528.47 1117.68,-529.45 1112.36,-530.33 1106.87,-531.1 1101.21,-531.76 1095.39,-532.31 1089.42,-532.75 1083.3,-533.08 1077.03,-533.31 1070.63,-533.43 1064.11,-533.44 1057.48,-533.35 1050.74,-533.16 1043.91,-532.87 1037.01,-532.47 1030.05,-531.98 1023.04,-531.39 1016.01,-530.7 1008.98,-529.93 1001.95,-529.06 994.97,-528.1 988.04,-527.05 981.2,-525.92 974.46,-524.71 967.86,-523.42 961.41,-522.05 955.15,-520.6 949.09,-519.08 943.27,-517.49 937.72,-515.83 932.45,-514.11 927.49,-512.32 922.87,-510.48 918.62,-508.58 914.74,-506.62 911.28,-504.62 908.24,-502.57 905.64,-500.48 903.51,-498.36 901.85,-496.2 900.68,-494.01 900.01,-491.8 899.85,-489.57 900.2,-487.32 901.07,-485.07 902.46,-482.82 904.36,-480.57 906.78,-478.33 909.71,-476.1 913.13,-473.9 917.04,-471.72 921.42,-469.58 926.25,-467.48 931.52,-465.43 937.21,-463.43 943.29,-461.5 949.73,-459.63 956.52,-457.84 963.61,-456.13 970.99,-454.5 978.63,-452.97 986.48,-451.54 994.52,-450.22 1002.71,-449.01"/>
<text text-anchor="middle" x="1052.76" y="-484.94" font-family="sans-serif" font-size="16.00">SeguridadDeDatos</text>
</g>
<!-- CumplimientoDeNormativas&#45;&gt;SeguridadDeDatos -->
<g id="edge5" class="edge">
<title>CumplimientoDeNormativas&#45;&gt;SeguridadDeDatos</title>
<path fill="none" stroke="black" stroke-width="2" d="M1052.76,-593.94C1052.76,-574.66 1052.76,-552.22 1052.76,-533.25"/>
<text text-anchor="middle" x="1127.76" y="-560.67" font-family="sans-serif" font-size="12.00"> &#160;&#160;&#160;&#160;&#160;&#160;&#160;&#160;&#160;&#160;&#160;&#160;&#160;&#160;&#160;&#160;&#160;&#160;&#160;&#160;&#160;&#160;&#160;&#160;&#160;&#160;&#160;&#160;&#160;&#160;&#160;&#160;&#160;&#160;&#160;&#160;&#160;&#160;&#160;</text>
<polygon fill="white" stroke="none" points="1046.26,-524.12 1046.26,-542.37 1059.26,-542.37 1059.26,-524.12 1046.26,-524.12"/>
<text text-anchor="start" x="1048.26" y="-528.97" font-family="sans-serif" font-size="12.00">D</text>
<polygon fill="white" stroke="none" points="1046.26,-584.81 1046.26,-603.06 1059.26,-603.06 1059.26,-584.81 1046.26,-584.81"/>
<text text-anchor="start" x="1048.26" y="-589.66" font-family="sans-serif" font-size="12.00">U</text>
</g>
<!-- DataPartnership -->
<g id="node9" class="node">
<title>DataPartnership</title>
<polygon fill="none" stroke="black" stroke-width="2" points="1491.74,-596.48 1499.52,-597.17 1507.16,-597.98 1514.64,-598.9 1521.92,-599.93 1528.98,-601.06 1535.78,-602.29 1542.3,-603.62 1548.52,-605.05 1554.41,-606.56 1559.95,-608.16 1565.12,-609.84 1569.9,-611.59 1574.28,-613.42 1578.24,-615.3 1581.78,-617.25 1584.87,-619.26 1587.53,-621.31 1589.74,-623.41 1591.51,-625.55 1592.82,-627.72 1593.7,-629.92 1594.13,-632.14 1594.13,-634.37 1593.71,-636.62 1592.88,-638.87 1591.65,-641.12 1590.03,-643.37 1588.04,-645.6 1585.69,-647.82 1583.01,-650.01 1580.01,-652.18 1576.71,-654.31 1573.14,-656.4 1569.3,-658.45 1565.22,-660.46 1560.92,-662.4 1556.42,-664.29 1551.74,-666.12 1546.9,-667.88 1541.91,-669.56 1536.81,-671.17 1531.59,-672.7 1526.29,-674.14 1520.91,-675.49 1515.47,-676.76 1509.99,-677.92 1504.47,-678.98 1498.93,-679.95 1493.38,-680.8 1487.83,-681.55 1482.29,-682.19 1476.76,-682.72 1471.26,-683.13 1465.78,-683.42 1460.34,-683.6 1454.93,-683.65 1449.57,-683.59 1444.26,-683.41 1439,-683.11 1433.79,-682.69 1428.64,-682.14 1423.55,-681.48 1418.52,-680.71 1413.56,-679.81 1408.68,-678.81 1403.87,-677.69 1399.14,-676.46 1394.5,-675.13 1389.95,-673.69 1385.5,-672.15 1381.16,-670.52 1376.94,-668.8 1372.84,-666.99 1368.88,-665.1 1365.07,-663.14 1361.41,-661.1 1357.92,-659 1354.62,-656.84 1351.52,-654.62 1348.62,-652.36 1345.95,-650.06 1343.52,-647.73 1341.35,-645.37 1339.45,-642.99 1337.83,-640.59 1336.51,-638.2 1335.5,-635.8 1334.82,-633.41 1334.48,-631.04 1334.49,-628.7 1334.87,-626.38 1335.61,-624.1 1336.74,-621.87 1338.26,-619.68 1340.17,-617.56 1342.47,-615.49 1345.17,-613.5 1348.28,-611.58 1351.77,-609.75 1355.67,-608 1359.94,-606.34 1364.6,-604.78 1369.62,-603.33 1375,-601.97 1380.72,-600.73 1386.76,-599.6 1393.11,-598.58 1399.74,-597.68 1406.63,-596.9 1413.76,-596.24 1421.1,-595.71 1428.62,-595.3 1436.3,-595.01 1444.1,-594.85 1451.99,-594.81 1459.95,-594.9 1467.93,-595.12 1475.92,-595.45 1483.86,-595.91 1491.74,-596.48"/>
<text text-anchor="middle" x="1460.76" y="-634.02" font-family="sans-serif" font-size="16.00">DataPartnership</text>
</g>
<!-- ServiciosDeAccesoADatosParaIA -->
<g id="node10" class="node">
<title>ServiciosDeAccesoADatosParaIA</title>
<polygon fill="none" stroke="black" stroke-width="2" points="1521.01,-533.02 1507.66,-533.88 1494.22,-534.61 1480.75,-535.22 1467.31,-535.7 1453.94,-536.05 1440.7,-536.26 1427.64,-536.34 1414.8,-536.28 1402.23,-536.08 1389.98,-535.75 1378.08,-535.27 1366.57,-534.66 1355.5,-533.91 1344.88,-533.03 1334.75,-532.02 1325.14,-530.88 1316.07,-529.62 1307.56,-528.23 1299.62,-526.73 1292.26,-525.12 1285.51,-523.39 1279.35,-521.57 1273.8,-519.66 1268.86,-517.65 1264.52,-515.57 1260.78,-513.41 1257.64,-511.18 1255.07,-508.89 1253.08,-506.56 1251.65,-504.18 1250.77,-501.76 1250.42,-499.32 1250.58,-496.85 1251.24,-494.38 1252.38,-491.9 1253.98,-489.43 1256.03,-486.97 1258.51,-484.53 1261.39,-482.12 1264.67,-479.74 1268.32,-477.41 1272.33,-475.13 1276.69,-472.9 1281.39,-470.74 1286.4,-468.64 1291.72,-466.62 1297.33,-464.68 1303.23,-462.82 1309.41,-461.05 1315.86,-459.37 1322.58,-457.79 1329.55,-456.3 1336.77,-454.92 1344.23,-453.65 1351.94,-452.48 1359.89,-451.42 1368.06,-450.48 1376.46,-449.64 1385.09,-448.92 1393.93,-448.31 1402.98,-447.81 1412.24,-447.42 1421.69,-447.15 1431.32,-446.99 1441.13,-446.94 1451.1,-447 1461.22,-447.17 1471.48,-447.45 1481.85,-447.83 1492.31,-448.32 1502.85,-448.91 1513.44,-449.59 1524.06,-450.38 1534.67,-451.26 1545.26,-452.23 1555.78,-453.29 1566.21,-454.45 1576.52,-455.68 1586.66,-457 1596.6,-458.4 1606.3,-459.87 1615.72,-461.42 1624.83,-463.04 1633.58,-464.72 1641.94,-466.47 1649.86,-468.28 1657.31,-470.14 1664.25,-472.06 1670.63,-474.03 1676.44,-476.04 1681.62,-478.1 1686.16,-480.19 1690.01,-482.32 1693.16,-484.47 1695.58,-486.65 1697.25,-488.85 1698.14,-491.06 1698.25,-493.29 1697.57,-495.51 1696.08,-497.74 1693.79,-499.96 1690.69,-502.16 1686.79,-504.35 1682.1,-506.51 1676.63,-508.65 1670.39,-510.75 1663.42,-512.8 1655.73,-514.81 1647.35,-516.77 1638.31,-518.66 1628.66,-520.49 1618.42,-522.25 1607.64,-523.93 1596.36,-525.52 1584.64,-527.03 1572.51,-528.44 1560.03,-529.74 1547.25,-530.95 1534.23,-532.04 1521.01,-533.02"/>
<text text-anchor="middle" x="1460.76" y="-484.94" font-family="sans-serif" font-size="16.00">ServiciosDeAccesoADatosParaIA</text>
</g>
<!-- DataPartnership&#45;&gt;ServiciosDeAccesoADatosParaIA -->
<g id="edge6" class="edge">
<title>DataPartnership&#45;&gt;ServiciosDeAccesoADatosParaIA</title>
<path fill="none" stroke="black" stroke-width="2" d="M1460.76,-594.74C1460.76,-576.28 1460.76,-554.8 1460.76,-536.22"/>
<text text-anchor="middle" x="1535.76" y="-560.67" font-family="sans-serif" font-size="12.00"> &#160;&#160;&#160;&#160;&#160;&#160;&#160;&#160;&#160;&#160;&#160;&#160;&#160;&#160;&#160;&#160;&#160;&#160;&#160;&#160;&#160;&#160;&#160;&#160;&#160;&#160;&#160;&#160;&#160;&#160;&#160;&#160;&#160;&#160;&#160;&#160;&#160;&#160;&#160;</text>
<polygon fill="white" stroke="none" points="1454.26,-527.1 1454.26,-545.35 1467.26,-545.35 1467.26,-527.1 1454.26,-527.1"/>
<text text-anchor="start" x="1456.26" y="-531.95" font-family="sans-serif" font-size="12.00">D</text>
<polygon fill="white" stroke="none" points="1454.26,-585.61 1454.26,-603.86 1467.26,-603.86 1467.26,-585.61 1454.26,-585.61"/>
<text text-anchor="start" x="1456.26" y="-590.46" font-family="sans-serif" font-size="12.00">U</text>
</g>
<!-- EstrategiasDeComercializacion -->
<g id="node11" class="node">
<title>EstrategiasDeComercializacion</title>
<polygon fill="none" stroke="black" stroke-width="2" points="1664.41,-348.08 1662.58,-350.95 1660.21,-353.79 1657.29,-356.59 1653.83,-359.32 1649.86,-361.98 1645.37,-364.56 1640.38,-367.06 1634.9,-369.45 1628.96,-371.73 1622.56,-373.89 1615.73,-375.93 1608.48,-377.84 1600.84,-379.61 1592.82,-381.23 1584.45,-382.71 1575.75,-384.04 1566.74,-385.21 1557.45,-386.23 1547.91,-387.09 1538.13,-387.79 1528.15,-388.33 1518,-388.72 1507.69,-388.96 1497.25,-389.04 1486.72,-388.97 1476.13,-388.77 1465.49,-388.42 1454.84,-387.93 1444.21,-387.32 1433.63,-386.58 1423.11,-385.73 1412.7,-384.76 1402.42,-383.69 1392.29,-382.52 1382.34,-381.26 1372.6,-379.91 1363.1,-378.49 1353.86,-376.99 1344.9,-375.43 1336.26,-373.81 1327.94,-372.13 1319.98,-370.41 1312.4,-368.65 1305.21,-366.85 1298.44,-365.03 1292.11,-363.17 1286.23,-361.29 1280.82,-359.4 1275.9,-357.48 1271.47,-355.56 1267.55,-353.63 1264.16,-351.69 1261.3,-349.75 1258.98,-347.81 1257.21,-345.86 1256,-343.92 1255.34,-341.98 1255.25,-340.05 1255.72,-338.12 1256.75,-336.19 1258.34,-334.28 1260.49,-332.38 1263.19,-330.48 1266.44,-328.6 1270.22,-326.74 1274.54,-324.88 1279.37,-323.05 1284.7,-321.24 1290.53,-319.45 1296.83,-317.69 1303.59,-315.95 1310.78,-314.25 1318.4,-312.58 1326.42,-310.96 1334.81,-309.37 1343.56,-307.84 1352.64,-306.37 1362.03,-304.95 1371.69,-303.6 1381.61,-302.32 1391.75,-301.12 1402.09,-300 1412.59,-298.97 1423.23,-298.03 1433.98,-297.2 1444.8,-296.47 1455.67,-295.86 1466.56,-295.36 1477.43,-294.99 1488.25,-294.75 1499,-294.64 1509.64,-294.67 1520.14,-294.85 1530.47,-295.17 1540.61,-295.63 1550.53,-296.25 1560.19,-297.01 1569.57,-297.93 1578.65,-299 1587.39,-300.22 1595.78,-301.59 1603.79,-303.11 1611.4,-304.77 1618.59,-306.56 1625.33,-308.49 1631.61,-310.55 1637.42,-312.74 1642.73,-315.03 1647.54,-317.44 1651.82,-319.94 1655.58,-322.53 1658.79,-325.2 1661.46,-327.93 1663.57,-330.73 1665.12,-333.57 1666.11,-336.45 1666.53,-339.35 1666.39,-342.27 1665.68,-345.18 1664.41,-348.08"/>
<text text-anchor="middle" x="1460.76" y="-335.95" font-family="sans-serif" font-size="16.00">EstrategiasDeComercializacion</text>
</g>
<!-- ServiciosDeAccesoADatosParaIA&#45;&gt;EstrategiasDeComercializacion -->
<g id="edge7" class="edge">
<title>ServiciosDeAccesoADatosParaIA&#45;&gt;EstrategiasDeComercializacion</title>
<path fill="none" stroke="black" stroke-width="2" d="M1460.76,-446.87C1460.76,-428.64 1460.76,-407.3 1460.76,-388.68"/>
<text text-anchor="middle" x="1535.76" y="-411.55" font-family="sans-serif" font-size="12.00"> &#160;&#160;&#160;&#160;&#160;&#160;&#160;&#160;&#160;&#160;&#160;&#160;&#160;&#160;&#160;&#160;&#160;&#160;&#160;&#160;&#160;&#160;&#160;&#160;&#160;&#160;&#160;&#160;&#160;&#160;&#160;&#160;&#160;&#160;&#160;&#160;&#160;&#160;&#160;</text>
<polygon fill="white" stroke="none" points="1454.26,-379.55 1454.26,-397.8 1467.26,-397.8 1467.26,-379.55 1454.26,-379.55"/>
<text text-anchor="start" x="1456.26" y="-384.4" font-family="sans-serif" font-size="12.00">D</text>
<polygon fill="white" stroke="none" points="1454.26,-437.75 1454.26,-456 1467.26,-456 1467.26,-437.75 1454.26,-437.75"/>
<text text-anchor="start" x="1456.26" y="-442.6" font-family="sans-serif" font-size="12.00">U</text>
</g>
<!-- ModelosDeFacturacion -->
<g id="node12" class="node">
<title>ModelosDeFacturacion</title>
<polygon fill="none" stroke="black" stroke-width="2" points="1978.42,-666.6 1972.21,-668.93 1965.69,-671.16 1958.88,-673.3 1951.82,-675.33 1944.53,-677.24 1937.04,-679.03 1929.36,-680.69 1921.53,-682.21 1913.57,-683.58 1905.52,-684.8 1897.38,-685.87 1889.2,-686.78 1880.98,-687.53 1872.77,-688.12 1864.57,-688.53 1856.41,-688.78 1848.31,-688.87 1840.29,-688.79 1832.37,-688.54 1824.57,-688.13 1816.9,-687.56 1809.38,-686.84 1802.03,-685.97 1794.86,-684.95 1787.88,-683.79 1781.1,-682.5 1774.54,-681.08 1768.2,-679.55 1762.1,-677.9 1756.24,-676.15 1750.64,-674.3 1745.3,-672.37 1740.22,-670.35 1735.42,-668.27 1730.91,-666.13 1726.68,-663.93 1722.74,-661.69 1719.11,-659.42 1715.78,-657.11 1712.76,-654.79 1710.05,-652.46 1707.67,-650.12 1705.61,-647.79 1703.88,-645.47 1702.49,-643.16 1701.43,-640.87 1700.72,-638.62 1700.36,-636.39 1700.35,-634.2 1700.7,-632.06 1701.4,-629.96 1702.47,-627.91 1703.91,-625.91 1705.72,-623.97 1707.89,-622.09 1710.43,-620.26 1713.35,-618.5 1716.64,-616.79 1720.29,-615.16 1724.32,-613.58 1728.7,-612.07 1733.45,-610.63 1738.55,-609.26 1743.99,-607.96 1749.77,-606.72 1755.89,-605.55 1762.31,-604.45 1769.05,-603.42 1776.07,-602.47 1783.37,-601.58 1790.93,-600.77 1798.73,-600.04 1806.75,-599.38 1814.96,-598.79 1823.36,-598.29 1831.91,-597.86 1840.58,-597.52 1849.36,-597.26 1858.21,-597.09 1867.11,-597.01 1876.02,-597.02 1884.92,-597.12 1893.79,-597.32 1902.57,-597.61 1911.26,-598.01 1919.81,-598.5 1928.2,-599.1 1936.39,-599.81 1944.35,-600.62 1952.06,-601.54 1959.49,-602.57 1966.61,-603.71 1973.38,-604.96 1979.8,-606.32 1985.82,-607.79 1991.44,-609.36 1996.62,-611.04 2001.35,-612.83 2005.61,-614.71 2009.39,-616.69 2012.67,-618.77 2015.45,-620.93 2017.7,-623.18 2019.43,-625.5 2020.63,-627.9 2021.29,-630.35 2021.43,-632.87 2021.03,-635.43 2020.11,-638.04 2018.66,-640.68 2016.71,-643.33 2014.25,-646 2011.31,-648.68 2007.89,-651.34 2004.01,-653.99 1999.69,-656.61 1994.95,-659.19 1989.81,-661.73 1984.29,-664.2 1978.42,-666.6"/>
<text text-anchor="middle" x="1852.76" y="-634.02" font-family="sans-serif" font-size="16.00">ModelosDeFacturacion</text>
</g>
<!-- ProcesoDePagos -->
<g id="node13" class="node">
<title>ProcesoDePagos</title>
<polygon fill="none" stroke="black" stroke-width="2" points="1887.42,-533.02 1879.74,-533.88 1872.01,-534.61 1864.26,-535.22 1856.53,-535.7 1848.84,-536.05 1841.22,-536.26 1833.71,-536.34 1826.32,-536.28 1819.09,-536.08 1812.04,-535.75 1805.2,-535.27 1798.58,-534.66 1792.21,-533.91 1786.1,-533.03 1780.27,-532.02 1774.74,-530.88 1769.53,-529.62 1764.63,-528.23 1760.06,-526.73 1755.83,-525.12 1751.94,-523.39 1748.4,-521.57 1745.21,-519.66 1742.37,-517.65 1739.87,-515.57 1737.72,-513.41 1735.91,-511.18 1734.44,-508.89 1733.29,-506.56 1732.47,-504.18 1731.96,-501.76 1731.76,-499.32 1731.85,-496.85 1732.23,-494.38 1732.89,-491.9 1733.81,-489.43 1734.99,-486.97 1736.41,-484.53 1738.07,-482.12 1739.96,-479.74 1742.06,-477.41 1744.37,-475.13 1746.87,-472.9 1749.57,-470.74 1752.46,-468.64 1755.52,-466.62 1758.75,-464.68 1762.14,-462.82 1765.7,-461.05 1769.41,-459.37 1773.27,-457.79 1777.28,-456.3 1781.43,-454.92 1785.73,-453.65 1790.16,-452.48 1794.73,-451.42 1799.43,-450.48 1804.27,-449.64 1809.23,-448.92 1814.32,-448.31 1819.52,-447.81 1824.85,-447.42 1830.28,-447.15 1835.82,-446.99 1841.47,-446.94 1847.2,-447 1853.03,-447.17 1858.92,-447.45 1864.89,-447.83 1870.91,-448.32 1876.97,-448.91 1883.06,-449.59 1889.17,-450.38 1895.28,-451.26 1901.37,-452.23 1907.42,-453.29 1913.42,-454.45 1919.35,-455.68 1925.18,-457 1930.9,-458.4 1936.48,-459.87 1941.9,-461.42 1947.14,-463.04 1952.18,-464.72 1956.98,-466.47 1961.54,-468.28 1965.83,-470.14 1969.82,-472.06 1973.49,-474.03 1976.83,-476.04 1979.81,-478.1 1982.42,-480.19 1984.64,-482.32 1986.45,-484.47 1987.84,-486.65 1988.8,-488.85 1989.32,-491.06 1989.38,-493.29 1988.99,-495.51 1988.13,-497.74 1986.81,-499.96 1985.03,-502.16 1982.79,-504.35 1980.09,-506.51 1976.94,-508.65 1973.35,-510.75 1969.34,-512.8 1964.92,-514.81 1960.1,-516.77 1954.9,-518.66 1949.34,-520.49 1943.45,-522.25 1937.25,-523.93 1930.77,-525.52 1924.02,-527.03 1917.04,-528.44 1909.87,-529.74 1902.52,-530.95 1895.02,-532.04 1887.42,-533.02"/>
<text text-anchor="middle" x="1852.76" y="-484.94" font-family="sans-serif" font-size="16.00">ProcesoDePagos</text>
</g>
<!-- ModelosDeFacturacion&#45;&gt;ProcesoDePagos -->
<g id="edge8" class="edge">
<title>ModelosDeFacturacion&#45;&gt;ProcesoDePagos</title>
<path fill="none" stroke="black" stroke-width="2" d="M1852.76,-596.71C1852.76,-577.86 1852.76,-555.55 1852.76,-536.33"/>
<text text-anchor="middle" x="1927.76" y="-560.67" font-family="sans-serif" font-size="12.00"> &#160;&#160;&#160;&#160;&#160;&#160;&#160;&#160;&#160;&#160;&#160;&#160;&#160;&#160;&#160;&#160;&#160;&#160;&#160;&#160;&#160;&#160;&#160;&#160;&#160;&#160;&#160;&#160;&#160;&#160;&#160;&#160;&#160;&#160;&#160;&#160;&#160;&#160;&#160;</text>
<polygon fill="white" stroke="none" points="1846.26,-527.21 1846.26,-545.46 1859.26,-545.46 1859.26,-527.21 1846.26,-527.21"/>
<text text-anchor="start" x="1848.26" y="-532.06" font-family="sans-serif" font-size="12.00">D</text>
<polygon fill="white" stroke="none" points="1846.26,-587.59 1846.26,-605.84 1859.26,-605.84 1859.26,-587.59 1846.26,-587.59"/>
<text text-anchor="start" x="1848.26" y="-592.44" font-family="sans-serif" font-size="12.00">U</text>
</g>
<!-- RelacionConProveedores -->
<g id="node14" class="node">
<title>RelacionConProveedores</title>
<polygon fill="none" stroke="black" stroke-width="2" points="792.62,-612.51 799.52,-614.79 806.01,-617.13 812.05,-619.53 817.63,-621.96 822.7,-624.43 827.26,-626.92 831.28,-629.42 834.74,-631.93 837.62,-634.44 839.93,-636.94 841.63,-639.41 842.73,-641.86 843.22,-644.28 843.1,-646.65 842.36,-648.97 841.02,-651.25 839.08,-653.46 836.54,-655.61 833.41,-657.68 829.72,-659.69 825.47,-661.61 820.69,-663.46 815.4,-665.22 809.62,-666.9 803.37,-668.49 796.68,-669.99 789.59,-671.39 782.11,-672.71 774.29,-673.93 766.14,-675.06 757.72,-676.1 749.04,-677.04 740.15,-677.9 731.07,-678.65 721.85,-679.32 712.51,-679.9 703.09,-680.38 693.63,-680.78 684.14,-681.08 674.67,-681.3 665.25,-681.42 655.9,-681.46 646.66,-681.42 637.54,-681.28 628.58,-681.06 619.79,-680.76 611.21,-680.36 602.84,-679.89 594.71,-679.32 586.84,-678.67 579.24,-677.94 571.92,-677.12 564.9,-676.21 558.18,-675.22 551.78,-674.15 545.71,-672.99 539.97,-671.74 534.56,-670.41 529.49,-669 524.77,-667.5 520.39,-665.93 516.36,-664.27 512.67,-662.54 509.34,-660.73 506.36,-658.84 503.72,-656.89 501.43,-654.86 499.49,-652.78 497.89,-650.63 496.64,-648.43 495.74,-646.17 495.18,-643.87 494.96,-641.54 495.08,-639.16 495.54,-636.76 496.35,-634.34 497.49,-631.91 498.98,-629.47 500.81,-627.03 502.99,-624.6 505.5,-622.19 508.36,-619.81 511.57,-617.46 515.11,-615.16 519,-612.92 523.23,-610.73 527.79,-608.62 532.7,-606.59 537.94,-604.64 543.51,-602.8 549.41,-601.06 555.63,-599.43 562.16,-597.92 569,-596.53 576.13,-595.28 583.55,-594.17 591.24,-593.21 599.18,-592.39 607.38,-591.72 615.79,-591.22 624.42,-590.86 633.23,-590.67 642.2,-590.65 651.32,-590.78 660.55,-591.08 669.87,-591.53 679.26,-592.15 688.68,-592.92 698.1,-593.84 707.49,-594.91 716.82,-596.13 726.06,-597.49 735.17,-598.97 744.13,-600.59 752.89,-602.32 761.42,-604.17 769.69,-606.12 777.67,-608.17 785.32,-610.3 792.62,-612.51"/>
<text text-anchor="middle" x="656.76" y="-634.02" font-family="sans-serif" font-size="16.00">RelacionConProveedores</text>
</g>
<!-- RelacionConProveedores&#45;&gt;ColaboracionConDesarrolladores -->
<g id="edge9" class="edge">
<title>RelacionConProveedores&#45;&gt;ColaboracionConDesarrolladores</title>
<path fill="none" stroke="black" stroke-width="2" d="M656.76,-590.72C656.76,-572.6 656.76,-552.09 656.76,-534.43"/>
<text text-anchor="middle" x="698.38" y="-560.67" font-family="sans-serif" font-size="12.00">Shared Kernel</text>
</g>
<!-- STAEnterprise -->
<g id="node15" class="node">
<title>STAEnterprise</title>
<polygon fill="none" stroke="black" stroke-width="2" points="2047.6,-363.18 2043.97,-360.67 2040.63,-358.12 2037.6,-355.53 2034.88,-352.92 2032.48,-350.29 2030.43,-347.66 2028.73,-345.04 2027.38,-342.43 2026.41,-339.84 2025.8,-337.28 2025.56,-334.77 2025.71,-332.3 2026.23,-329.9 2027.12,-327.55 2028.4,-325.27 2030.04,-323.07 2032.05,-320.95 2034.42,-318.92 2037.13,-316.97 2040.18,-315.12 2043.56,-313.37 2047.26,-311.71 2051.25,-310.16 2055.53,-308.71 2060.07,-307.36 2064.86,-306.12 2069.88,-304.98 2075.12,-303.95 2080.54,-303.02 2086.14,-302.2 2091.88,-301.47 2097.75,-300.85 2103.73,-300.33 2109.8,-299.91 2115.92,-299.58 2122.09,-299.35 2128.28,-299.21 2134.47,-299.16 2140.64,-299.2 2146.76,-299.33 2152.83,-299.55 2158.82,-299.85 2164.71,-300.23 2170.5,-300.69 2176.15,-301.23 2181.66,-301.85 2187.01,-302.55 2192.19,-303.33 2197.19,-304.18 2202,-305.11 2206.61,-306.11 2211,-307.19 2215.18,-308.34 2219.13,-309.56 2222.85,-310.86 2226.33,-312.23 2229.57,-313.67 2232.57,-315.18 2235.32,-316.76 2237.82,-318.41 2240.08,-320.13 2242.08,-321.92 2243.84,-323.77 2245.34,-325.68 2246.6,-327.66 2247.61,-329.69 2248.37,-331.77 2248.89,-333.91 2249.17,-336.1 2249.21,-338.32 2249.01,-340.59 2248.57,-342.88 2247.91,-345.21 2247.01,-347.55 2245.88,-349.92 2244.53,-352.28 2242.95,-354.65 2241.16,-357.02 2239.15,-359.36 2236.92,-361.69 2234.48,-363.98 2231.83,-366.24 2228.97,-368.45 2225.91,-370.59 2222.65,-372.68 2219.19,-374.69 2215.54,-376.62 2211.7,-378.45 2207.68,-380.19 2203.48,-381.81 2199.11,-383.32 2194.57,-384.71 2189.87,-385.97 2185.02,-387.09 2180.03,-388.07 2174.91,-388.9 2169.66,-389.58 2164.29,-390.11 2158.83,-390.47 2153.27,-390.67 2147.64,-390.7 2141.94,-390.57 2136.19,-390.28 2130.41,-389.81 2124.61,-389.19 2118.81,-388.4 2113.02,-387.45 2107.27,-386.34 2101.57,-385.09 2095.93,-383.69 2090.39,-382.14 2084.95,-380.47 2079.64,-378.66 2074.47,-376.74 2069.47,-374.71 2064.66,-372.57 2060.04,-370.34 2055.65,-368.03 2051.5,-365.64 2047.6,-363.18"/>
<text text-anchor="middle" x="2143.76" y="-335.95" font-family="sans-serif" font-size="16.00">STAEnterprise</text>
</g>
<!-- STAPro -->
<g id="node16" class="node">
<title>STAPro</title>
<polygon fill="none" stroke="black" stroke-width="2" points="2085.31,-466.42 2087.7,-463.95 2090.24,-461.57 2092.91,-459.27 2095.71,-457.08 2098.63,-455 2101.65,-453.03 2104.77,-451.19 2107.98,-449.49 2111.26,-447.93 2114.6,-446.51 2118,-445.25 2121.44,-444.14 2124.92,-443.19 2128.42,-442.41 2131.93,-441.8 2135.46,-441.35 2138.97,-441.07 2142.48,-440.95 2145.96,-441.01 2149.42,-441.22 2152.83,-441.6 2156.21,-442.14 2159.53,-442.83 2162.8,-443.67 2165.99,-444.65 2169.12,-445.77 2172.18,-447.02 2175.15,-448.4 2178.03,-449.89 2180.82,-451.49 2183.51,-453.2 2186.1,-454.99 2188.59,-456.87 2190.96,-458.83 2193.22,-460.86 2195.36,-462.94 2197.38,-465.08 2199.28,-467.25 2201.04,-469.47 2202.67,-471.7 2204.17,-473.96 2205.53,-476.23 2206.74,-478.51 2207.81,-480.78 2208.73,-483.04 2209.5,-485.29 2210.12,-487.53 2210.58,-489.73 2210.88,-491.91 2211.02,-494.06 2211,-496.16 2210.81,-498.23 2210.46,-500.26 2209.94,-502.24 2209.25,-504.17 2208.39,-506.05 2207.36,-507.88 2206.16,-509.65 2204.79,-511.37 2203.25,-513.04 2201.54,-514.65 2199.67,-516.2 2197.64,-517.69 2195.44,-519.13 2193.09,-520.5 2190.59,-521.81 2187.93,-523.06 2185.14,-524.25 2182.21,-525.37 2179.15,-526.43 2175.97,-527.43 2172.67,-528.35 2169.27,-529.2 2165.77,-529.99 2162.18,-530.69 2158.51,-531.32 2154.78,-531.88 2150.99,-532.35 2147.15,-532.73 2143.29,-533.03 2139.4,-533.24 2135.51,-533.36 2131.62,-533.38 2127.75,-533.3 2123.92,-533.12 2120.12,-532.83 2116.39,-532.44 2112.72,-531.94 2109.14,-531.32 2105.66,-530.59 2102.28,-529.75 2099.02,-528.79 2095.9,-527.71 2092.92,-526.51 2090.1,-525.19 2087.44,-523.76 2084.95,-522.21 2082.64,-520.55 2080.53,-518.78 2078.61,-516.9 2076.9,-514.91 2075.4,-512.82 2074.11,-510.64 2073.04,-508.37 2072.19,-506.01 2071.57,-503.58 2071.17,-501.07 2070.99,-498.51 2071.04,-495.89 2071.31,-493.23 2071.8,-490.54 2072.5,-487.82 2073.42,-485.08 2074.55,-482.34 2075.88,-479.61 2077.4,-476.89 2079.12,-474.21 2081.01,-471.56 2083.08,-468.96 2085.31,-466.42"/>
<text text-anchor="middle" x="2143.76" y="-484.94" font-family="sans-serif" font-size="16.00">STAPro</text>
</g>
<!-- STAPro&#45;&gt;STAEnterprise -->
<g id="edge10" class="edge">
<title>STAPro&#45;&gt;STAEnterprise</title>
<path fill="none" stroke="black" stroke-width="2" d="M2143.76,-440.85C2143.76,-424.8 2143.76,-406.94 2143.76,-390.89"/>
<text text-anchor="middle" x="2218.76" y="-411.55" font-family="sans-serif" font-size="12.00"> &#160;&#160;&#160;&#160;&#160;&#160;&#160;&#160;&#160;&#160;&#160;&#160;&#160;&#160;&#160;&#160;&#160;&#160;&#160;&#160;&#160;&#160;&#160;&#160;&#160;&#160;&#160;&#160;&#160;&#160;&#160;&#160;&#160;&#160;&#160;&#160;&#160;&#160;&#160;</text>
<polygon fill="white" stroke="none" points="2137.26,-381.76 2137.26,-400.01 2150.26,-400.01 2150.26,-381.76 2137.26,-381.76"/>
<text text-anchor="start" x="2139.26" y="-386.61" font-family="sans-serif" font-size="12.00">D</text>
<polygon fill="white" stroke="none" points="2137.26,-431.73 2137.26,-449.98 2150.26,-449.98 2150.26,-431.73 2137.26,-431.73"/>
<text text-anchor="start" x="2139.26" y="-436.58" font-family="sans-serif" font-size="12.00">U</text>
</g>
<!-- STAStandard -->
<g id="node17" class="node">
<title>STAStandard</title>
<polygon fill="none" stroke="black" stroke-width="2" points="2040.99,-632.79 2041.91,-629.92 2043.11,-627.08 2044.58,-624.28 2046.32,-621.55 2048.33,-618.89 2050.6,-616.31 2053.12,-613.81 2055.88,-611.42 2058.88,-609.14 2062.11,-606.98 2065.56,-604.94 2069.21,-603.03 2073.07,-601.26 2077.12,-599.64 2081.34,-598.16 2085.73,-596.83 2090.28,-595.66 2094.96,-594.64 2099.78,-593.78 2104.71,-593.08 2109.75,-592.54 2114.88,-592.15 2120.08,-591.91 2125.34,-591.83 2130.66,-591.9 2136,-592.1 2141.37,-592.45 2146.74,-592.94 2152.11,-593.55 2157.45,-594.29 2162.76,-595.14 2168.01,-596.11 2173.2,-597.18 2178.31,-598.35 2183.33,-599.61 2188.25,-600.96 2193.04,-602.38 2197.7,-603.88 2202.22,-605.44 2206.59,-607.06 2210.78,-608.74 2214.8,-610.46 2218.63,-612.22 2222.25,-614.02 2225.67,-615.84 2228.87,-617.7 2231.83,-619.58 2234.56,-621.47 2237.05,-623.39 2239.28,-625.31 2241.26,-627.24 2242.97,-629.18 2244.41,-631.12 2245.58,-633.06 2246.48,-635.01 2247.09,-636.95 2247.42,-638.89 2247.47,-640.82 2247.23,-642.75 2246.71,-644.68 2245.91,-646.59 2244.82,-648.49 2243.46,-650.39 2241.82,-652.27 2239.91,-654.13 2237.73,-655.99 2235.3,-657.82 2232.61,-659.63 2229.67,-661.42 2226.49,-663.19 2223.08,-664.92 2219.44,-666.62 2215.6,-668.29 2211.55,-669.91 2207.32,-671.5 2202.9,-673.03 2198.32,-674.5 2193.58,-675.92 2188.71,-677.27 2183.7,-678.55 2178.58,-679.75 2173.37,-680.87 2168.07,-681.9 2162.7,-682.84 2157.28,-683.67 2151.81,-684.4 2146.33,-685.01 2140.83,-685.51 2135.35,-685.88 2129.89,-686.12 2124.46,-686.23 2119.09,-686.2 2113.79,-686.02 2108.58,-685.7 2103.46,-685.24 2098.46,-684.62 2093.58,-683.86 2088.85,-682.94 2084.27,-681.87 2079.85,-680.65 2075.62,-679.28 2071.58,-677.76 2067.74,-676.11 2064.11,-674.31 2060.71,-672.38 2057.54,-670.32 2054.61,-668.13 2051.93,-665.84 2049.5,-663.43 2047.34,-660.93 2045.44,-658.34 2043.82,-655.67 2042.48,-652.94 2041.41,-650.14 2040.63,-647.3 2040.13,-644.42 2039.92,-641.52 2039.99,-638.6 2040.35,-635.69 2040.99,-632.79"/>
<text text-anchor="middle" x="2143.76" y="-634.02" font-family="sans-serif" font-size="16.00">STAStandard</text>
</g>
<!-- STAStandard&#45;&gt;STAPro -->
<g id="edge11" class="edge">
<title>STAStandard&#45;&gt;STAPro</title>
<path fill="none" stroke="black" stroke-width="2" d="M2143.76,-592.33C2143.76,-573.46 2143.76,-551.78 2143.76,-533.36"/>
<text text-anchor="middle" x="2218.76" y="-560.67" font-family="sans-serif" font-size="12.00"> &#160;&#160;&#160;&#160;&#160;&#160;&#160;&#160;&#160;&#160;&#160;&#160;&#160;&#160;&#160;&#160;&#160;&#160;&#160;&#160;&#160;&#160;&#160;&#160;&#160;&#160;&#160;&#160;&#160;&#160;&#160;&#160;&#160;&#160;&#160;&#160;&#160;&#160;&#160;</text>
<polygon fill="white" stroke="none" points="2137.26,-524.24 2137.26,-542.49 2150.26,-542.49 2150.26,-524.24 2137.26,-524.24"/>
<text text-anchor="start" x="2139.26" y="-529.09" font-family="sans-serif" font-size="12.00">D</text>
<polygon fill="white" stroke="none" points="2137.26,-583.21 2137.26,-601.46 2150.26,-601.46 2150.26,-583.21 2137.26,-583.21"/>
<text text-anchor="start" x="2139.26" y="-588.06" font-family="sans-serif" font-size="12.00">U</text>
</g>
</g>
</svg>
